solid OpenSCAD_Model
  facet normal -0.866025 -0.5 0
    outer loop
      vertex -5.4 -10 -7.1239e-07
      vertex -6.2 -8.61436 2
      vertex -6.2 -8.61436 -7.1239e-07
    endloop
  endfacet
  facet normal -0.866025 -0.5 0
    outer loop
      vertex -6.2 -8.61436 2
      vertex -5.4 -10 -7.1239e-07
      vertex -5.4 -10 2
    endloop
  endfacet
  facet normal -0.866025 0.5 0
    outer loop
      vertex -6.2 -11.3856 -7.1239e-07
      vertex -5.4 -10 2
      vertex -5.4 -10 -7.1239e-07
    endloop
  endfacet
  facet normal -0.866025 0.5 0
    outer loop
      vertex -5.4 -10 2
      vertex -6.2 -11.3856 -7.1239e-07
      vertex -6.2 -11.3856 2
    endloop
  endfacet
  facet normal 0.866025 -0.5 0
    outer loop
      vertex -8.6 -10 2
      vertex -7.8 -8.61436 -7.1239e-07
      vertex -7.8 -8.61436 2
    endloop
  endfacet
  facet normal 0.866025 -0.5 0
    outer loop
      vertex -7.8 -8.61436 -7.1239e-07
      vertex -8.6 -10 2
      vertex -8.6 -10 -7.1239e-07
    endloop
  endfacet
  facet normal 0 -1 0
    outer loop
      vertex -7.8 -8.61436 -7.1239e-07
      vertex -6.2 -8.61436 2
      vertex -7.8 -8.61436 2
    endloop
  endfacet
  facet normal 0 -1 -0
    outer loop
      vertex -6.2 -8.61436 2
      vertex -7.8 -8.61436 -7.1239e-07
      vertex -6.2 -8.61436 -7.1239e-07
    endloop
  endfacet
  facet normal 0.866025 0.5 0
    outer loop
      vertex -7.8 -11.3856 2
      vertex -8.6 -10 -7.1239e-07
      vertex -8.6 -10 2
    endloop
  endfacet
  facet normal 0.866025 0.5 0
    outer loop
      vertex -8.6 -10 -7.1239e-07
      vertex -7.8 -11.3856 2
      vertex -7.8 -11.3856 -7.1239e-07
    endloop
  endfacet
  facet normal 0 1 -0
    outer loop
      vertex -6.2 -11.3856 -7.1239e-07
      vertex -7.8 -11.3856 2
      vertex -6.2 -11.3856 2
    endloop
  endfacet
  facet normal 0 1 0
    outer loop
      vertex -7.8 -11.3856 2
      vertex -6.2 -11.3856 -7.1239e-07
      vertex -7.8 -11.3856 -7.1239e-07
    endloop
  endfacet
  facet normal 0.866025 -0.500001 0
    outer loop
      vertex -73.6 -10 2
      vertex -72.8 -8.61436 -7.1239e-07
      vertex -72.8 -8.61436 2
    endloop
  endfacet
  facet normal 0.866025 -0.500001 0
    outer loop
      vertex -72.8 -8.61436 -7.1239e-07
      vertex -73.6 -10 2
      vertex -73.6 -10 -7.1239e-07
    endloop
  endfacet
  facet normal 0 -1 0
    outer loop
      vertex -72.8 -8.61436 -7.1239e-07
      vertex -71.2 -8.61436 2
      vertex -72.8 -8.61436 2
    endloop
  endfacet
  facet normal 0 -1 -0
    outer loop
      vertex -71.2 -8.61436 2
      vertex -72.8 -8.61436 -7.1239e-07
      vertex -71.2 -8.61436 -7.1239e-07
    endloop
  endfacet
  facet normal -0.866027 -0.499998 0
    outer loop
      vertex -70.4 -10 -7.1239e-07
      vertex -71.2 -8.61436 2
      vertex -71.2 -8.61436 -7.1239e-07
    endloop
  endfacet
  facet normal -0.866027 -0.499998 0
    outer loop
      vertex -71.2 -8.61436 2
      vertex -70.4 -10 -7.1239e-07
      vertex -70.4 -10 2
    endloop
  endfacet
  facet normal -0.866027 0.499998 0
    outer loop
      vertex -71.2 -11.3856 -7.1239e-07
      vertex -70.4 -10 2
      vertex -70.4 -10 -7.1239e-07
    endloop
  endfacet
  facet normal -0.866027 0.499998 0
    outer loop
      vertex -70.4 -10 2
      vertex -71.2 -11.3856 -7.1239e-07
      vertex -71.2 -11.3856 2
    endloop
  endfacet
  facet normal 0 1 -0
    outer loop
      vertex -71.2 -11.3856 -7.1239e-07
      vertex -72.8 -11.3856 2
      vertex -71.2 -11.3856 2
    endloop
  endfacet
  facet normal 0 1 0
    outer loop
      vertex -72.8 -11.3856 2
      vertex -71.2 -11.3856 -7.1239e-07
      vertex -72.8 -11.3856 -7.1239e-07
    endloop
  endfacet
  facet normal 0.866024 0.500002 0
    outer loop
      vertex -72.8 -11.3856 2
      vertex -73.6 -10 -7.1239e-07
      vertex -73.6 -10 2
    endloop
  endfacet
  facet normal 0.866024 0.500002 0
    outer loop
      vertex -73.6 -10 -7.1239e-07
      vertex -72.8 -11.3856 2
      vertex -72.8 -11.3856 -7.1239e-07
    endloop
  endfacet
  facet normal -0.866026 -0.499999 0
    outer loop
      vertex -5.4 -112.125 -7.1239e-07
      vertex -6.2 -110.739 2
      vertex -6.2 -110.739 -7.1239e-07
    endloop
  endfacet
  facet normal -0.866026 -0.499999 0
    outer loop
      vertex -6.2 -110.739 2
      vertex -5.4 -112.125 -7.1239e-07
      vertex -5.4 -112.125 2
    endloop
  endfacet
  facet normal -0.866026 0.499999 0
    outer loop
      vertex -6.2 -113.511 -7.1239e-07
      vertex -5.4 -112.125 2
      vertex -5.4 -112.125 -7.1239e-07
    endloop
  endfacet
  facet normal -0.866026 0.499999 0
    outer loop
      vertex -5.4 -112.125 2
      vertex -6.2 -113.511 -7.1239e-07
      vertex -6.2 -113.511 2
    endloop
  endfacet
  facet normal 0 -1 0
    outer loop
      vertex -7.8 -110.739 -7.1239e-07
      vertex -6.2 -110.739 2
      vertex -7.8 -110.739 2
    endloop
  endfacet
  facet normal 0 -1 -0
    outer loop
      vertex -6.2 -110.739 2
      vertex -7.8 -110.739 -7.1239e-07
      vertex -6.2 -110.739 -7.1239e-07
    endloop
  endfacet
  facet normal 0.866026 -0.499999 0
    outer loop
      vertex -8.6 -112.125 2
      vertex -7.8 -110.739 -7.1239e-07
      vertex -7.8 -110.739 2
    endloop
  endfacet
  facet normal 0.866026 -0.499999 0
    outer loop
      vertex -7.8 -110.739 -7.1239e-07
      vertex -8.6 -112.125 2
      vertex -8.6 -112.125 -7.1239e-07
    endloop
  endfacet
  facet normal 0.866026 0.499999 0
    outer loop
      vertex -7.8 -113.511 2
      vertex -8.6 -112.125 -7.1239e-07
      vertex -8.6 -112.125 2
    endloop
  endfacet
  facet normal 0.866026 0.499999 0
    outer loop
      vertex -8.6 -112.125 -7.1239e-07
      vertex -7.8 -113.511 2
      vertex -7.8 -113.511 -7.1239e-07
    endloop
  endfacet
  facet normal 0 1 -0
    outer loop
      vertex -6.2 -113.511 -7.1239e-07
      vertex -7.8 -113.511 2
      vertex -6.2 -113.511 2
    endloop
  endfacet
  facet normal 0 1 0
    outer loop
      vertex -7.8 -113.511 2
      vertex -6.2 -113.511 -7.1239e-07
      vertex -7.8 -113.511 -7.1239e-07
    endloop
  endfacet
  facet normal 0.866025 -0.500001 0
    outer loop
      vertex -73.6 -112.125 2
      vertex -72.8 -110.739 -7.1239e-07
      vertex -72.8 -110.739 2
    endloop
  endfacet
  facet normal 0.866025 -0.500001 0
    outer loop
      vertex -72.8 -110.739 -7.1239e-07
      vertex -73.6 -112.125 2
      vertex -73.6 -112.125 -7.1239e-07
    endloop
  endfacet
  facet normal 0 -1 0
    outer loop
      vertex -72.8 -110.739 -7.1239e-07
      vertex -71.2 -110.739 2
      vertex -72.8 -110.739 2
    endloop
  endfacet
  facet normal 0 -1 -0
    outer loop
      vertex -71.2 -110.739 2
      vertex -72.8 -110.739 -7.1239e-07
      vertex -71.2 -110.739 -7.1239e-07
    endloop
  endfacet
  facet normal -0.866027 -0.499997 0
    outer loop
      vertex -70.4 -112.125 -7.1239e-07
      vertex -71.2 -110.739 2
      vertex -71.2 -110.739 -7.1239e-07
    endloop
  endfacet
  facet normal -0.866027 -0.499997 0
    outer loop
      vertex -71.2 -110.739 2
      vertex -70.4 -112.125 -7.1239e-07
      vertex -70.4 -112.125 2
    endloop
  endfacet
  facet normal -0.866027 0.499997 0
    outer loop
      vertex -71.2 -113.511 -7.1239e-07
      vertex -70.4 -112.125 2
      vertex -70.4 -112.125 -7.1239e-07
    endloop
  endfacet
  facet normal -0.866027 0.499997 0
    outer loop
      vertex -70.4 -112.125 2
      vertex -71.2 -113.511 -7.1239e-07
      vertex -71.2 -113.511 2
    endloop
  endfacet
  facet normal 0 1 -0
    outer loop
      vertex -71.2 -113.511 -7.1239e-07
      vertex -72.8 -113.511 2
      vertex -71.2 -113.511 2
    endloop
  endfacet
  facet normal 0 1 0
    outer loop
      vertex -72.8 -113.511 2
      vertex -71.2 -113.511 -7.1239e-07
      vertex -72.8 -113.511 -7.1239e-07
    endloop
  endfacet
  facet normal 0.866025 0.500001 0
    outer loop
      vertex -72.8 -113.511 2
      vertex -73.6 -112.125 -7.1239e-07
      vertex -73.6 -112.125 2
    endloop
  endfacet
  facet normal 0.866025 0.500001 0
    outer loop
      vertex -73.6 -112.125 -7.1239e-07
      vertex -72.8 -113.511 2
      vertex -72.8 -113.511 -7.1239e-07
    endloop
  endfacet
  facet normal 1 0 -2.22045e-16
    outer loop
      vertex 1.84512e-14 -121.825 2
      vertex 1.80071e-14 -0.15 -7.1239e-07
      vertex 1.84512e-14 -0.15 2
    endloop
  endfacet
  facet normal 1 0 -2.22045e-16
    outer loop
      vertex 1.80071e-14 -0.15 -7.1239e-07
      vertex 1.84512e-14 -121.825 2
      vertex 1.80071e-14 -121.825 -7.1239e-07
    endloop
  endfacet
  facet normal 0 0 1
    outer loop
      vertex -71.2 -110.739 2
      vertex -7.8 -110.739 2
      vertex -71.2 -11.3856 2
    endloop
  endfacet
  facet normal 0 0 1
    outer loop
      vertex -7.8 -110.739 2
      vertex -71.2 -110.739 2
      vertex -70.4 -112.125 2
    endloop
  endfacet
  facet normal -0 0 1
    outer loop
      vertex -72.8 -11.3856 2
      vertex -71.2 -110.739 2
      vertex -71.2 -11.3856 2
    endloop
  endfacet
  facet normal 0 0 1
    outer loop
      vertex -72.8 -11.3856 2
      vertex -72.8 -110.739 2
      vertex -71.2 -110.739 2
    endloop
  endfacet
  facet normal 0 0 1
    outer loop
      vertex -73.6 -10 2
      vertex -72.8 -110.739 2
      vertex -72.8 -11.3856 2
    endloop
  endfacet
  facet normal 0 0 1
    outer loop
      vertex -72.8 -110.739 2
      vertex -73.6 -10 2
      vertex -73.6 -112.125 2
    endloop
  endfacet
  facet normal -0 0 1
    outer loop
      vertex -6.2 -11.3856 2
      vertex -5.4 -112.125 2
      vertex -5.4 -10 2
    endloop
  endfacet
  facet normal 0 0 1
    outer loop
      vertex -6.2 -11.3856 2
      vertex -6.2 -110.739 2
      vertex -5.4 -112.125 2
    endloop
  endfacet
  facet normal -0 0 1
    outer loop
      vertex -7.8 -11.3856 2
      vertex -6.2 -110.739 2
      vertex -6.2 -11.3856 2
    endloop
  endfacet
  facet normal 0 0 1
    outer loop
      vertex -7.8 -11.3856 2
      vertex -7.8 -110.739 2
      vertex -6.2 -110.739 2
    endloop
  endfacet
  facet normal -0 0 1
    outer loop
      vertex -70.4 -10 2
      vertex -7.8 -11.3856 2
      vertex -8.6 -10 2
    endloop
  endfacet
  facet normal 0 0 1
    outer loop
      vertex -71.2 -11.3856 2
      vertex -7.8 -11.3856 2
      vertex -70.4 -10 2
    endloop
  endfacet
  facet normal 0 0 1
    outer loop
      vertex 1.84512e-14 -0.15 2
      vertex -5.4 -10 2
      vertex 1.84512e-14 -121.825 2
    endloop
  endfacet
  facet normal 0 0 1
    outer loop
      vertex 1.84512e-14 -0.15 2
      vertex -6.2 -8.61436 2
      vertex -5.4 -10 2
    endloop
  endfacet
  facet normal 0 0 1
    outer loop
      vertex 1.84512e-14 -0.15 2
      vertex -7.8 -8.61436 2
      vertex -6.2 -8.61436 2
    endloop
  endfacet
  facet normal 0 0 1
    outer loop
      vertex -7.8 -11.3856 2
      vertex -71.2 -11.3856 2
      vertex -7.8 -110.739 2
    endloop
  endfacet
  facet normal 0 0 1
    outer loop
      vertex -7.8 -8.61436 2
      vertex -70.4 -10 2
      vertex -8.6 -10 2
    endloop
  endfacet
  facet normal 0 0 1
    outer loop
      vertex -71.2 -8.61436 2
      vertex -7.8 -8.61436 2
      vertex 1.84512e-14 -0.15 2
    endloop
  endfacet
  facet normal 0 0 1
    outer loop
      vertex -7.8 -8.61436 2
      vertex -71.2 -8.61436 2
      vertex -70.4 -10 2
    endloop
  endfacet
  facet normal -0 0 1
    outer loop
      vertex -79 -0.15 2
      vertex -71.2 -8.61436 2
      vertex 1.84512e-14 -0.15 2
    endloop
  endfacet
  facet normal 0 0 1
    outer loop
      vertex -73.6 -10 2
      vertex -79 -0.15 2
      vertex -73.6 -112.125 2
    endloop
  endfacet
  facet normal 0 0 1
    outer loop
      vertex -72.8 -8.61436 2
      vertex -79 -0.15 2
      vertex -73.6 -10 2
    endloop
  endfacet
  facet normal 0 0 1
    outer loop
      vertex -71.2 -8.61436 2
      vertex -79 -0.15 2
      vertex -72.8 -8.61436 2
    endloop
  endfacet
  facet normal -0 0 1
    outer loop
      vertex -5.4 -112.125 2
      vertex 1.84512e-14 -121.825 2
      vertex -5.4 -10 2
    endloop
  endfacet
  facet normal -0 0 1
    outer loop
      vertex -6.2 -113.511 2
      vertex 1.84512e-14 -121.825 2
      vertex -5.4 -112.125 2
    endloop
  endfacet
  facet normal -0 0 1
    outer loop
      vertex -7.8 -113.511 2
      vertex 1.84512e-14 -121.825 2
      vertex -6.2 -113.511 2
    endloop
  endfacet
  facet normal 0 0 1
    outer loop
      vertex -7.8 -110.739 2
      vertex -70.4 -112.125 2
      vertex -8.6 -112.125 2
    endloop
  endfacet
  facet normal 0 0 1
    outer loop
      vertex -8.6 -112.125 2
      vertex -70.4 -112.125 2
      vertex -7.8 -113.511 2
    endloop
  endfacet
  facet normal 0 0 1
    outer loop
      vertex -71.2 -113.511 2
      vertex -7.8 -113.511 2
      vertex -70.4 -112.125 2
    endloop
  endfacet
  facet normal 0 0 1
    outer loop
      vertex -7.8 -113.511 2
      vertex -71.2 -113.511 2
      vertex 1.84512e-14 -121.825 2
    endloop
  endfacet
  facet normal 0 0 1
    outer loop
      vertex -79 -121.825 2
      vertex -71.2 -113.511 2
      vertex -72.8 -113.511 2
    endloop
  endfacet
  facet normal 0 0 1
    outer loop
      vertex -71.2 -113.511 2
      vertex -79 -121.825 2
      vertex 1.84512e-14 -121.825 2
    endloop
  endfacet
  facet normal 0 0 1
    outer loop
      vertex -73.6 -112.125 2
      vertex -79 -121.825 2
      vertex -72.8 -113.511 2
    endloop
  endfacet
  facet normal 0 0 1
    outer loop
      vertex -79 -121.825 2
      vertex -73.6 -112.125 2
      vertex -79 -0.15 2
    endloop
  endfacet
  facet normal 0 0 -1
    outer loop
      vertex -71.2 -11.3856 -7.1239e-07
      vertex -7.8 -11.3856 -7.1239e-07
      vertex -71.2 -110.739 -7.1239e-07
    endloop
  endfacet
  facet normal 0 0 -1
    outer loop
      vertex -7.8 -11.3856 -7.1239e-07
      vertex -71.2 -11.3856 -7.1239e-07
      vertex -70.4 -10 -7.1239e-07
    endloop
  endfacet
  facet normal 0 0 -1
    outer loop
      vertex -72.8 -110.739 -7.1239e-07
      vertex -71.2 -11.3856 -7.1239e-07
      vertex -71.2 -110.739 -7.1239e-07
    endloop
  endfacet
  facet normal 0 0 -1
    outer loop
      vertex -72.8 -110.739 -7.1239e-07
      vertex -72.8 -11.3856 -7.1239e-07
      vertex -71.2 -11.3856 -7.1239e-07
    endloop
  endfacet
  facet normal 0 0 -1
    outer loop
      vertex -73.6 -112.125 -7.1239e-07
      vertex -72.8 -11.3856 -7.1239e-07
      vertex -72.8 -110.739 -7.1239e-07
    endloop
  endfacet
  facet normal -0 0 -1
    outer loop
      vertex -72.8 -11.3856 -7.1239e-07
      vertex -73.6 -112.125 -7.1239e-07
      vertex -73.6 -10 -7.1239e-07
    endloop
  endfacet
  facet normal 0 0 -1
    outer loop
      vertex -6.2 -110.739 -7.1239e-07
      vertex -5.4 -10 -7.1239e-07
      vertex -5.4 -112.125 -7.1239e-07
    endloop
  endfacet
  facet normal 0 0 -1
    outer loop
      vertex -6.2 -110.739 -7.1239e-07
      vertex -6.2 -11.3856 -7.1239e-07
      vertex -5.4 -10 -7.1239e-07
    endloop
  endfacet
  facet normal 0 0 -1
    outer loop
      vertex -7.8 -110.739 -7.1239e-07
      vertex -6.2 -11.3856 -7.1239e-07
      vertex -6.2 -110.739 -7.1239e-07
    endloop
  endfacet
  facet normal 0 0 -1
    outer loop
      vertex -7.8 -110.739 -7.1239e-07
      vertex -7.8 -11.3856 -7.1239e-07
      vertex -6.2 -11.3856 -7.1239e-07
    endloop
  endfacet
  facet normal 0 0 -1
    outer loop
      vertex -70.4 -112.125 -7.1239e-07
      vertex -7.8 -110.739 -7.1239e-07
      vertex -8.6 -112.125 -7.1239e-07
    endloop
  endfacet
  facet normal 0 0 -1
    outer loop
      vertex -71.2 -110.739 -7.1239e-07
      vertex -7.8 -110.739 -7.1239e-07
      vertex -70.4 -112.125 -7.1239e-07
    endloop
  endfacet
  facet normal 0 0 -1
    outer loop
      vertex 1.80071e-14 -121.825 -7.1239e-07
      vertex -5.4 -112.125 -7.1239e-07
      vertex 1.80071e-14 -0.15 -7.1239e-07
    endloop
  endfacet
  facet normal 0 0 -1
    outer loop
      vertex 1.80071e-14 -121.825 -7.1239e-07
      vertex -6.2 -113.511 -7.1239e-07
      vertex -5.4 -112.125 -7.1239e-07
    endloop
  endfacet
  facet normal 0 0 -1
    outer loop
      vertex 1.80071e-14 -121.825 -7.1239e-07
      vertex -7.8 -113.511 -7.1239e-07
      vertex -6.2 -113.511 -7.1239e-07
    endloop
  endfacet
  facet normal 0 0 -1
    outer loop
      vertex -7.8 -110.739 -7.1239e-07
      vertex -71.2 -110.739 -7.1239e-07
      vertex -7.8 -11.3856 -7.1239e-07
    endloop
  endfacet
  facet normal 0 0 -1
    outer loop
      vertex -7.8 -113.511 -7.1239e-07
      vertex -70.4 -112.125 -7.1239e-07
      vertex -8.6 -112.125 -7.1239e-07
    endloop
  endfacet
  facet normal 0 0 -1
    outer loop
      vertex -71.2 -113.511 -7.1239e-07
      vertex -7.8 -113.511 -7.1239e-07
      vertex 1.80071e-14 -121.825 -7.1239e-07
    endloop
  endfacet
  facet normal 0 0 -1
    outer loop
      vertex -7.8 -113.511 -7.1239e-07
      vertex -71.2 -113.511 -7.1239e-07
      vertex -70.4 -112.125 -7.1239e-07
    endloop
  endfacet
  facet normal 0 0 -1
    outer loop
      vertex -79 -121.825 -7.1239e-07
      vertex -71.2 -113.511 -7.1239e-07
      vertex 1.80071e-14 -121.825 -7.1239e-07
    endloop
  endfacet
  facet normal -0 0 -1
    outer loop
      vertex -73.6 -112.125 -7.1239e-07
      vertex -79 -121.825 -7.1239e-07
      vertex -73.6 -10 -7.1239e-07
    endloop
  endfacet
  facet normal -0 0 -1
    outer loop
      vertex -72.8 -113.511 -7.1239e-07
      vertex -79 -121.825 -7.1239e-07
      vertex -73.6 -112.125 -7.1239e-07
    endloop
  endfacet
  facet normal -0 0 -1
    outer loop
      vertex -71.2 -113.511 -7.1239e-07
      vertex -79 -121.825 -7.1239e-07
      vertex -72.8 -113.511 -7.1239e-07
    endloop
  endfacet
  facet normal 0 0 -1
    outer loop
      vertex -5.4 -10 -7.1239e-07
      vertex 1.80071e-14 -0.15 -7.1239e-07
      vertex -5.4 -112.125 -7.1239e-07
    endloop
  endfacet
  facet normal 0 0 -1
    outer loop
      vertex -6.2 -8.61436 -7.1239e-07
      vertex 1.80071e-14 -0.15 -7.1239e-07
      vertex -5.4 -10 -7.1239e-07
    endloop
  endfacet
  facet normal 0 0 -1
    outer loop
      vertex -7.8 -8.61436 -7.1239e-07
      vertex 1.80071e-14 -0.15 -7.1239e-07
      vertex -6.2 -8.61436 -7.1239e-07
    endloop
  endfacet
  facet normal 0 0 -1
    outer loop
      vertex -7.8 -11.3856 -7.1239e-07
      vertex -70.4 -10 -7.1239e-07
      vertex -8.6 -10 -7.1239e-07
    endloop
  endfacet
  facet normal 0 0 -1
    outer loop
      vertex -8.6 -10 -7.1239e-07
      vertex -70.4 -10 -7.1239e-07
      vertex -7.8 -8.61436 -7.1239e-07
    endloop
  endfacet
  facet normal 0 0 -1
    outer loop
      vertex -71.2 -8.61436 -7.1239e-07
      vertex -7.8 -8.61436 -7.1239e-07
      vertex -70.4 -10 -7.1239e-07
    endloop
  endfacet
  facet normal 0 0 -1
    outer loop
      vertex -7.8 -8.61436 -7.1239e-07
      vertex -71.2 -8.61436 -7.1239e-07
      vertex 1.80071e-14 -0.15 -7.1239e-07
    endloop
  endfacet
  facet normal 0 0 -1
    outer loop
      vertex -79 -0.15 -7.1239e-07
      vertex -71.2 -8.61436 -7.1239e-07
      vertex -72.8 -8.61436 -7.1239e-07
    endloop
  endfacet
  facet normal 0 0 -1
    outer loop
      vertex -71.2 -8.61436 -7.1239e-07
      vertex -79 -0.15 -7.1239e-07
      vertex 1.80071e-14 -0.15 -7.1239e-07
    endloop
  endfacet
  facet normal 0 0 -1
    outer loop
      vertex -73.6 -10 -7.1239e-07
      vertex -79 -0.15 -7.1239e-07
      vertex -72.8 -8.61436 -7.1239e-07
    endloop
  endfacet
  facet normal 0 0 -1
    outer loop
      vertex -79 -0.15 -7.1239e-07
      vertex -73.6 -10 -7.1239e-07
      vertex -79 -121.825 -7.1239e-07
    endloop
  endfacet
  facet normal 0 -1 0
    outer loop
      vertex -79 -121.825 -7.1239e-07
      vertex 1.84512e-14 -121.825 2
      vertex -79 -121.825 2
    endloop
  endfacet
  facet normal 0 -1 0
    outer loop
      vertex 1.84512e-14 -121.825 2
      vertex -79 -121.825 -7.1239e-07
      vertex 1.80071e-14 -121.825 -7.1239e-07
    endloop
  endfacet
  facet normal 0 1 -0
    outer loop
      vertex 1.80071e-14 -0.15 -7.1239e-07
      vertex -79 -0.15 2
      vertex 1.84512e-14 -0.15 2
    endloop
  endfacet
  facet normal 0 1 0
    outer loop
      vertex -79 -0.15 2
      vertex 1.80071e-14 -0.15 -7.1239e-07
      vertex -79 -0.15 -7.1239e-07
    endloop
  endfacet
  facet normal -1 0 0
    outer loop
      vertex -79 -121.825 -7.1239e-07
      vertex -79 -0.15 2
      vertex -79 -0.15 -7.1239e-07
    endloop
  endfacet
  facet normal -1 -0 0
    outer loop
      vertex -79 -0.15 2
      vertex -79 -121.825 -7.1239e-07
      vertex -79 -121.825 2
    endloop
  endfacet
endsolid OpenSCAD_Model
