solid OpenSCAD_Model
  facet normal 0 -0.500002 0.866025
    outer loop
      vertex 81.0968 -130.739 6.2
      vertex 83.0968 -132.125 5.4
      vertex 83.0968 -130.739 6.2
    endloop
  endfacet
  facet normal 0 -0.500002 0.866025
    outer loop
      vertex 83.0968 -132.125 5.4
      vertex 81.0968 -130.739 6.2
      vertex 81.0968 -132.125 5.4
    endloop
  endfacet
  facet normal -0 0.500002 0.866025
    outer loop
      vertex 81.0968 -132.125 5.4
      vertex 83.0968 -133.511 6.2
      vertex 83.0968 -132.125 5.4
    endloop
  endfacet
  facet normal 0 0.500002 0.866025
    outer loop
      vertex 83.0968 -133.511 6.2
      vertex 81.0968 -132.125 5.4
      vertex 81.0968 -133.511 6.2
    endloop
  endfacet
  facet normal 0 -0.500002 -0.866025
    outer loop
      vertex 81.0968 -132.125 8.6
      vertex 83.0968 -130.739 7.8
      vertex 83.0968 -132.125 8.6
    endloop
  endfacet
  facet normal -0 -0.500002 -0.866025
    outer loop
      vertex 83.0968 -130.739 7.8
      vertex 81.0968 -132.125 8.6
      vertex 81.0968 -130.739 7.8
    endloop
  endfacet
  facet normal 0 -1 0
    outer loop
      vertex 81.0968 -130.739 6.2
      vertex 83.0968 -130.739 7.8
      vertex 81.0968 -130.739 7.8
    endloop
  endfacet
  facet normal 0 -1 -0
    outer loop
      vertex 83.0968 -130.739 7.8
      vertex 81.0968 -130.739 6.2
      vertex 83.0968 -130.739 6.2
    endloop
  endfacet
  facet normal 0 0.500002 -0.866025
    outer loop
      vertex 81.0968 -133.511 7.8
      vertex 83.0968 -132.125 8.6
      vertex 83.0968 -133.511 7.8
    endloop
  endfacet
  facet normal 0 0.500002 -0.866025
    outer loop
      vertex 83.0968 -132.125 8.6
      vertex 81.0968 -133.511 7.8
      vertex 81.0968 -132.125 8.6
    endloop
  endfacet
  facet normal 0 1 -0
    outer loop
      vertex 83.0968 -133.511 6.2
      vertex 81.0968 -133.511 7.8
      vertex 83.0968 -133.511 7.8
    endloop
  endfacet
  facet normal 0 1 0
    outer loop
      vertex 81.0968 -133.511 7.8
      vertex 83.0968 -133.511 6.2
      vertex 81.0968 -133.511 6.2
    endloop
  endfacet
  facet normal 0 -0.499999 -0.866026
    outer loop
      vertex 81.0968 -132.125 73.6
      vertex 83.0968 -130.739 72.8
      vertex 83.0968 -132.125 73.6
    endloop
  endfacet
  facet normal -0 -0.499999 -0.866026
    outer loop
      vertex 83.0968 -130.739 72.8
      vertex 81.0968 -132.125 73.6
      vertex 81.0968 -130.739 72.8
    endloop
  endfacet
  facet normal 0 -1 0
    outer loop
      vertex 81.0968 -130.739 71.2
      vertex 83.0968 -130.739 72.8
      vertex 81.0968 -130.739 72.8
    endloop
  endfacet
  facet normal 0 -1 -0
    outer loop
      vertex 83.0968 -130.739 72.8
      vertex 81.0968 -130.739 71.2
      vertex 83.0968 -130.739 71.2
    endloop
  endfacet
  facet normal 0 -0.499999 0.866026
    outer loop
      vertex 81.0968 -130.739 71.2
      vertex 83.0968 -132.125 70.4
      vertex 83.0968 -130.739 71.2
    endloop
  endfacet
  facet normal 0 -0.499999 0.866026
    outer loop
      vertex 83.0968 -132.125 70.4
      vertex 81.0968 -130.739 71.2
      vertex 81.0968 -132.125 70.4
    endloop
  endfacet
  facet normal -0 0.499999 0.866026
    outer loop
      vertex 81.0968 -132.125 70.4
      vertex 83.0968 -133.511 71.2
      vertex 83.0968 -132.125 70.4
    endloop
  endfacet
  facet normal 0 0.499999 0.866026
    outer loop
      vertex 83.0968 -133.511 71.2
      vertex 81.0968 -132.125 70.4
      vertex 81.0968 -133.511 71.2
    endloop
  endfacet
  facet normal 0 1 -0
    outer loop
      vertex 83.0968 -133.511 71.2
      vertex 81.0968 -133.511 72.8
      vertex 83.0968 -133.511 72.8
    endloop
  endfacet
  facet normal 0 1 0
    outer loop
      vertex 81.0968 -133.511 72.8
      vertex 83.0968 -133.511 71.2
      vertex 81.0968 -133.511 71.2
    endloop
  endfacet
  facet normal 0 0.499999 -0.866026
    outer loop
      vertex 81.0968 -133.511 72.8
      vertex 83.0968 -132.125 73.6
      vertex 83.0968 -133.511 72.8
    endloop
  endfacet
  facet normal 0 0.499999 -0.866026
    outer loop
      vertex 83.0968 -132.125 73.6
      vertex 81.0968 -133.511 72.8
      vertex 81.0968 -132.125 73.6
    endloop
  endfacet
  facet normal -0 0.499999 0.866026
    outer loop
      vertex -11.3019 -81.5 5.4
      vertex -9.5 -82.8856 6.2
      vertex -9.5 -81.5 5.4
    endloop
  endfacet
  facet normal 0 0.499999 0.866026
    outer loop
      vertex -9.5 -82.8856 6.2
      vertex -11.3019 -81.5 5.4
      vertex -11.3019 -82.8856 6.2
    endloop
  endfacet
  facet normal 0 -0.499999 0.866026
    outer loop
      vertex -11.3019 -80.1144 6.2
      vertex -9.5 -81.5 5.4
      vertex -9.5 -80.1144 6.2
    endloop
  endfacet
  facet normal 0 -0.499999 0.866026
    outer loop
      vertex -9.5 -81.5 5.4
      vertex -11.3019 -80.1144 6.2
      vertex -11.3019 -81.5 5.4
    endloop
  endfacet
  facet normal 0 -1 0
    outer loop
      vertex -11.3019 -80.1144 6.2
      vertex -9.5 -80.1144 7.8
      vertex -11.3019 -80.1144 7.8
    endloop
  endfacet
  facet normal 0 -1 -0
    outer loop
      vertex -9.5 -80.1144 7.8
      vertex -11.3019 -80.1144 6.2
      vertex -9.5 -80.1144 6.2
    endloop
  endfacet
  facet normal 0 0.499999 -0.866026
    outer loop
      vertex -11.3019 -82.8856 7.8
      vertex -9.5 -81.5 8.6
      vertex -9.5 -82.8856 7.8
    endloop
  endfacet
  facet normal 0 0.499999 -0.866026
    outer loop
      vertex -9.5 -81.5 8.6
      vertex -11.3019 -82.8856 7.8
      vertex -11.3019 -81.5 8.6
    endloop
  endfacet
  facet normal 0 -0.499999 -0.866026
    outer loop
      vertex -11.3019 -81.5 8.6
      vertex -9.5 -80.1144 7.8
      vertex -9.5 -81.5 8.6
    endloop
  endfacet
  facet normal -0 -0.499999 -0.866026
    outer loop
      vertex -9.5 -80.1144 7.8
      vertex -11.3019 -81.5 8.6
      vertex -11.3019 -80.1144 7.8
    endloop
  endfacet
  facet normal 0 1 -0
    outer loop
      vertex -9.5 -82.8856 6.2
      vertex -11.3019 -82.8856 7.8
      vertex -9.5 -82.8856 7.8
    endloop
  endfacet
  facet normal 0 1 0
    outer loop
      vertex -11.3019 -82.8856 7.8
      vertex -9.5 -82.8856 6.2
      vertex -11.3019 -82.8856 6.2
    endloop
  endfacet
  facet normal 0 0.499997 -0.866027
    outer loop
      vertex -11.3019 -82.8856 72.8
      vertex -9.5 -81.5 73.6
      vertex -9.5 -82.8856 72.8
    endloop
  endfacet
  facet normal 0 0.499997 -0.866027
    outer loop
      vertex -9.5 -81.5 73.6
      vertex -11.3019 -82.8856 72.8
      vertex -11.3019 -81.5 73.6
    endloop
  endfacet
  facet normal 0 -1 0
    outer loop
      vertex -11.3019 -80.1144 71.2
      vertex -9.5 -80.1144 72.8
      vertex -11.3019 -80.1144 72.8
    endloop
  endfacet
  facet normal 0 -1 -0
    outer loop
      vertex -9.5 -80.1144 72.8
      vertex -11.3019 -80.1144 71.2
      vertex -9.5 -80.1144 71.2
    endloop
  endfacet
  facet normal 0 1 -0
    outer loop
      vertex -9.5 -82.8856 71.2
      vertex -11.3019 -82.8856 72.8
      vertex -9.5 -82.8856 72.8
    endloop
  endfacet
  facet normal 0 1 0
    outer loop
      vertex -11.3019 -82.8856 72.8
      vertex -9.5 -82.8856 71.2
      vertex -11.3019 -82.8856 71.2
    endloop
  endfacet
  facet normal 0 -0.499997 0.866027
    outer loop
      vertex -11.3019 -80.1144 71.2
      vertex -9.5 -81.5 70.4
      vertex -9.5 -80.1144 71.2
    endloop
  endfacet
  facet normal 0 -0.499997 0.866027
    outer loop
      vertex -9.5 -81.5 70.4
      vertex -11.3019 -80.1144 71.2
      vertex -11.3019 -81.5 70.4
    endloop
  endfacet
  facet normal -0 0.499997 0.866027
    outer loop
      vertex -11.3019 -81.5 70.4
      vertex -9.5 -82.8856 71.2
      vertex -9.5 -81.5 70.4
    endloop
  endfacet
  facet normal 0 0.499997 0.866027
    outer loop
      vertex -9.5 -82.8856 71.2
      vertex -11.3019 -81.5 70.4
      vertex -11.3019 -82.8856 71.2
    endloop
  endfacet
  facet normal 0 -0.499997 -0.866027
    outer loop
      vertex -11.3019 -81.5 73.6
      vertex -9.5 -80.1144 72.8
      vertex -9.5 -81.5 73.6
    endloop
  endfacet
  facet normal -0 -0.499997 -0.866027
    outer loop
      vertex -9.5 -80.1144 72.8
      vertex -11.3019 -81.5 73.6
      vertex -11.3019 -80.1144 72.8
    endloop
  endfacet
  facet normal 0.5 0 0.866025
    outer loop
      vertex 49.355 -168.315 6.2
      vertex 50.7406 -170.265 5.4
      vertex 50.7406 -168.315 5.4
    endloop
  endfacet
  facet normal 0.5 0 0.866025
    outer loop
      vertex 50.7406 -170.265 5.4
      vertex 49.355 -168.315 6.2
      vertex 49.355 -170.265 6.2
    endloop
  endfacet
  facet normal -0.499999 0 0.866026
    outer loop
      vertex 50.7406 -168.315 5.4
      vertex 52.1263 -170.265 6.2
      vertex 52.1263 -168.315 6.2
    endloop
  endfacet
  facet normal -0.499999 0 0.866026
    outer loop
      vertex 52.1263 -170.265 6.2
      vertex 50.7406 -168.315 5.4
      vertex 50.7406 -170.265 5.4
    endloop
  endfacet
  facet normal -1 0 0
    outer loop
      vertex 52.1263 -170.265 6.2
      vertex 52.1263 -168.315 7.8
      vertex 52.1263 -168.315 6.2
    endloop
  endfacet
  facet normal -1 -0 0
    outer loop
      vertex 52.1263 -168.315 7.8
      vertex 52.1263 -170.265 6.2
      vertex 52.1263 -170.265 7.8
    endloop
  endfacet
  facet normal -0.499999 0 -0.866026
    outer loop
      vertex 50.7406 -170.265 8.6
      vertex 52.1263 -168.315 7.8
      vertex 52.1263 -170.265 7.8
    endloop
  endfacet
  facet normal -0.499999 0 -0.866026
    outer loop
      vertex 52.1263 -168.315 7.8
      vertex 50.7406 -170.265 8.6
      vertex 50.7406 -168.315 8.6
    endloop
  endfacet
  facet normal 0.5 0 -0.866025
    outer loop
      vertex 49.355 -170.265 7.8
      vertex 50.7406 -168.315 8.6
      vertex 50.7406 -170.265 8.6
    endloop
  endfacet
  facet normal 0.5 0 -0.866025
    outer loop
      vertex 50.7406 -168.315 8.6
      vertex 49.355 -170.265 7.8
      vertex 49.355 -168.315 7.8
    endloop
  endfacet
  facet normal 1 -0 0
    outer loop
      vertex 49.355 -170.265 7.8
      vertex 49.355 -168.315 6.2
      vertex 49.355 -168.315 7.8
    endloop
  endfacet
  facet normal 1 0 0
    outer loop
      vertex 49.355 -168.315 6.2
      vertex 49.355 -170.265 7.8
      vertex 49.355 -170.265 6.2
    endloop
  endfacet
  facet normal 0.499998 0 -0.866026
    outer loop
      vertex 49.355 -170.265 72.8
      vertex 50.7406 -168.315 73.6
      vertex 50.7406 -170.265 73.6
    endloop
  endfacet
  facet normal 0.499998 0 -0.866026
    outer loop
      vertex 50.7406 -168.315 73.6
      vertex 49.355 -170.265 72.8
      vertex 49.355 -168.315 72.8
    endloop
  endfacet
  facet normal 1 -0 0
    outer loop
      vertex 49.355 -170.265 72.8
      vertex 49.355 -168.315 71.2
      vertex 49.355 -168.315 72.8
    endloop
  endfacet
  facet normal 1 0 0
    outer loop
      vertex 49.355 -168.315 71.2
      vertex 49.355 -170.265 72.8
      vertex 49.355 -170.265 71.2
    endloop
  endfacet
  facet normal -1 0 0
    outer loop
      vertex 52.1263 -170.265 71.2
      vertex 52.1263 -168.315 72.8
      vertex 52.1263 -168.315 71.2
    endloop
  endfacet
  facet normal -1 -0 0
    outer loop
      vertex 52.1263 -168.315 72.8
      vertex 52.1263 -170.265 71.2
      vertex 52.1263 -170.265 72.8
    endloop
  endfacet
  facet normal -0.499997 0 0.866027
    outer loop
      vertex 50.7406 -168.315 70.4
      vertex 52.1263 -170.265 71.2
      vertex 52.1263 -168.315 71.2
    endloop
  endfacet
  facet normal -0.499997 0 0.866027
    outer loop
      vertex 52.1263 -170.265 71.2
      vertex 50.7406 -168.315 70.4
      vertex 50.7406 -170.265 70.4
    endloop
  endfacet
  facet normal -0.499997 0 -0.866027
    outer loop
      vertex 50.7406 -170.265 73.6
      vertex 52.1263 -168.315 72.8
      vertex 52.1263 -170.265 72.8
    endloop
  endfacet
  facet normal -0.499997 0 -0.866027
    outer loop
      vertex 52.1263 -168.315 72.8
      vertex 50.7406 -170.265 73.6
      vertex 50.7406 -168.315 73.6
    endloop
  endfacet
  facet normal 0.499998 0 0.866026
    outer loop
      vertex 49.355 -168.315 71.2
      vertex 50.7406 -170.265 70.4
      vertex 50.7406 -168.315 70.4
    endloop
  endfacet
  facet normal 0.499998 0 0.866026
    outer loop
      vertex 50.7406 -170.265 70.4
      vertex 49.355 -168.315 71.2
      vertex 49.355 -170.265 71.2
    endloop
  endfacet
  facet normal 0.380633 -0.324221 0.866025
    outer loop
      vertex 4.00769 -125.841 5.54411
      vertex 5.44218 -124.542 5.4
      vertex 4.96955 -123.987 5.81546
    endloop
  endfacet
  facet normal 0.380633 -0.324221 0.866025
    outer loop
      vertex 5.44218 -124.542 5.4
      vertex 4.00769 -125.841 5.54411
      vertex 4.17164 -126.034 5.4
    endloop
  endfacet
  facet normal 0.380633 -0.324219 0.866026
    outer loop
      vertex 3.26155 -124.965 6.2
      vertex 4.96955 -123.987 5.81546
      vertex 4.53209 -123.474 6.2
    endloop
  endfacet
  facet normal 0.380634 -0.324221 0.866025
    outer loop
      vertex 4.96955 -123.987 5.81546
      vertex 3.26155 -124.965 6.2
      vertex 4.00769 -125.841 5.54411
    endloop
  endfacet
  facet normal -0.380633 0.324221 0.866025
    outer loop
      vertex 4.17164 -126.034 5.4
      vertex 5.91481 -125.097 5.81546
      vertex 5.44218 -124.542 5.4
    endloop
  endfacet
  facet normal -0.380632 0.324219 0.866026
    outer loop
      vertex 5.91481 -125.097 5.81546
      vertex 4.17164 -126.034 5.4
      vertex 4.95295 -126.951 6.0868
    endloop
  endfacet
  facet normal -0.761265 0.648441 0
    outer loop
      vertex 5.08173 -127.102 6.2
      vertex 6.35227 -125.61 7.8
      vertex 6.35227 -125.61 6.2
    endloop
  endfacet
  facet normal -0.761265 0.648441 0
    outer loop
      vertex 6.35227 -125.61 7.8
      vertex 5.08173 -127.102 6.2
      vertex 5.08173 -127.102 7.8
    endloop
  endfacet
  facet normal -0.380632 0.324219 0.866026
    outer loop
      vertex 4.95295 -126.951 6.0868
      vertex 6.35227 -125.61 6.2
      vertex 5.91481 -125.097 5.81546
    endloop
  endfacet
  facet normal -0.380635 0.324223 0.866023
    outer loop
      vertex 6.35227 -125.61 6.2
      vertex 4.95295 -126.951 6.0868
      vertex 5.08173 -127.102 6.2
    endloop
  endfacet
  facet normal 0.380634 -0.324221 -0.866025
    outer loop
      vertex 3.26155 -124.965 7.8
      vertex 4.96955 -123.987 8.18454
      vertex 4.00769 -125.841 8.45589
    endloop
  endfacet
  facet normal 0.380633 -0.324219 -0.866026
    outer loop
      vertex 4.96955 -123.987 8.18454
      vertex 3.26155 -124.965 7.8
      vertex 4.53209 -123.474 7.8
    endloop
  endfacet
  facet normal 0.761267 -0.648439 0
    outer loop
      vertex 3.26155 -124.965 7.8
      vertex 4.53209 -123.474 6.2
      vertex 4.53209 -123.474 7.8
    endloop
  endfacet
  facet normal 0.761267 -0.648439 0
    outer loop
      vertex 4.53209 -123.474 6.2
      vertex 3.26155 -124.965 7.8
      vertex 3.26155 -124.965 6.2
    endloop
  endfacet
  facet normal 0.380633 -0.324221 -0.866025
    outer loop
      vertex 4.00769 -125.841 8.45589
      vertex 5.44218 -124.542 8.6
      vertex 4.17164 -126.034 8.6
    endloop
  endfacet
  facet normal 0.380633 -0.324221 -0.866025
    outer loop
      vertex 5.44218 -124.542 8.6
      vertex 4.00769 -125.841 8.45589
      vertex 4.96955 -123.987 8.18454
    endloop
  endfacet
  facet normal -0.380632 0.324219 -0.866026
    outer loop
      vertex 4.17164 -126.034 8.6
      vertex 5.91481 -125.097 8.18454
      vertex 4.95295 -126.951 7.9132
    endloop
  endfacet
  facet normal -0.380633 0.324221 -0.866025
    outer loop
      vertex 5.91481 -125.097 8.18454
      vertex 4.17164 -126.034 8.6
      vertex 5.44218 -124.542 8.6
    endloop
  endfacet
  facet normal -0.380635 0.324223 -0.866023
    outer loop
      vertex 4.95295 -126.951 7.9132
      vertex 6.35227 -125.61 7.8
      vertex 5.08173 -127.102 7.8
    endloop
  endfacet
  facet normal -0.380632 0.324219 -0.866026
    outer loop
      vertex 6.35227 -125.61 7.8
      vertex 4.95295 -126.951 7.9132
      vertex 5.91481 -125.097 8.18454
    endloop
  endfacet
  facet normal 0.38063 -0.32422 -0.866027
    outer loop
      vertex 3.26155 -124.965 72.8
      vertex 4.96955 -123.987 73.1845
      vertex 4.00769 -125.841 73.4559
    endloop
  endfacet
  facet normal 0.380628 -0.324215 -0.86603
    outer loop
      vertex 4.96955 -123.987 73.1845
      vertex 3.26155 -124.965 72.8
      vertex 4.53209 -123.474 72.8
    endloop
  endfacet
  facet normal 0.380635 -0.324223 -0.866024
    outer loop
      vertex 4.00769 -125.841 73.4559
      vertex 5.44218 -124.542 73.6
      vertex 4.17164 -126.034 73.6
    endloop
  endfacet
  facet normal 0.380634 -0.324222 -0.866024
    outer loop
      vertex 5.44218 -124.542 73.6
      vertex 4.00769 -125.841 73.4559
      vertex 4.96955 -123.987 73.1845
    endloop
  endfacet
  facet normal -0.380634 0.324222 0.866024
    outer loop
      vertex 4.17164 -126.034 70.4
      vertex 5.91481 -125.097 70.8155
      vertex 5.44218 -124.542 70.4
    endloop
  endfacet
  facet normal -0.380631 0.324216 0.866028
    outer loop
      vertex 5.91481 -125.097 70.8155
      vertex 4.17164 -126.034 70.4
      vertex 4.95295 -126.951 71.0868
    endloop
  endfacet
  facet normal -0.380619 0.324208 -0.866036
    outer loop
      vertex 4.95295 -126.951 72.9132
      vertex 6.35227 -125.61 72.8
      vertex 5.08173 -127.102 72.8
    endloop
  endfacet
  facet normal -0.380626 0.324217 -0.86603
    outer loop
      vertex 6.35227 -125.61 72.8
      vertex 4.95295 -126.951 72.9132
      vertex 5.91481 -125.097 73.1845
    endloop
  endfacet
  facet normal -0.380633 0.32422 -0.866025
    outer loop
      vertex 4.17164 -126.034 73.6
      vertex 5.91481 -125.097 73.1845
      vertex 4.95295 -126.951 72.9132
    endloop
  endfacet
  facet normal -0.380634 0.324222 -0.866024
    outer loop
      vertex 5.91481 -125.097 73.1845
      vertex 4.17164 -126.034 73.6
      vertex 5.44218 -124.542 73.6
    endloop
  endfacet
  facet normal 0.38063 -0.324216 0.866028
    outer loop
      vertex 4.00769 -125.841 70.5441
      vertex 5.44218 -124.542 70.4
      vertex 4.96955 -123.987 70.8155
    endloop
  endfacet
  facet normal 0.380635 -0.324223 0.866024
    outer loop
      vertex 5.44218 -124.542 70.4
      vertex 4.00769 -125.841 70.5441
      vertex 4.17164 -126.034 70.4
    endloop
  endfacet
  facet normal -0.380629 0.324214 0.866029
    outer loop
      vertex 4.95295 -126.951 71.0868
      vertex 6.35227 -125.61 71.2
      vertex 5.91481 -125.097 70.8155
    endloop
  endfacet
  facet normal -0.380638 0.324225 0.866021
    outer loop
      vertex 6.35227 -125.61 71.2
      vertex 4.95295 -126.951 71.0868
      vertex 5.08173 -127.102 71.2
    endloop
  endfacet
  facet normal 0.380633 -0.324219 0.866025
    outer loop
      vertex 3.26155 -124.965 71.2
      vertex 4.96955 -123.987 70.8155
      vertex 4.53209 -123.474 71.2
    endloop
  endfacet
  facet normal 0.380633 -0.324217 0.866026
    outer loop
      vertex 4.96955 -123.987 70.8155
      vertex 3.26155 -124.965 71.2
      vertex 4.00769 -125.841 70.5441
    endloop
  endfacet
  facet normal 0.761267 -0.648439 0
    outer loop
      vertex 3.26155 -124.965 72.8
      vertex 4.53209 -123.474 71.2
      vertex 4.53209 -123.474 72.8
    endloop
  endfacet
  facet normal 0.761267 -0.648439 0
    outer loop
      vertex 4.53209 -123.474 71.2
      vertex 3.26155 -124.965 72.8
      vertex 3.26155 -124.965 71.2
    endloop
  endfacet
  facet normal -0.761265 0.648441 0
    outer loop
      vertex 5.08173 -127.102 71.2
      vertex 6.35227 -125.61 72.8
      vertex 6.35227 -125.61 71.2
    endloop
  endfacet
  facet normal -0.761265 0.648441 0
    outer loop
      vertex 6.35227 -125.61 72.8
      vertex 5.08173 -127.102 71.2
      vertex 5.08173 -127.102 72.8
    endloop
  endfacet
  facet normal 0 0 -1
    outer loop
      vertex 80.4335 -144.436 0
      vertex 82.4335 -144.436 0
      vertex 80.4724 -150.472 0
    endloop
  endfacet
  facet normal 0 0 -1
    outer loop
      vertex 82.4335 -144.436 0
      vertex 80.4335 -144.436 0
      vertex 81.0968 -138.125 0
    endloop
  endfacet
  facet normal 0 0 -1
    outer loop
      vertex 78.4724 -150.472 0
      vertex 80.4724 -150.472 0
      vertex 79.7194 -152.036 0
    endloop
  endfacet
  facet normal 0 0 -1
    outer loop
      vertex 80.4724 -150.472 0
      vertex 78.4724 -150.472 0
      vertex 80.4335 -144.436 0
    endloop
  endfacet
  facet normal 0 0 -1
    outer loop
      vertex 75.2993 -155.968 0
      vertex 79.7194 -152.036 0
      vertex 76.5463 -157.532 0
    endloop
  endfacet
  facet normal -0 0 -1
    outer loop
      vertex 79.7194 -152.036 0
      vertex 75.2993 -155.968 0
      vertex 78.4724 -150.472 0
    endloop
  endfacet
  facet normal 0 0 -1
    outer loop
      vertex 71.0529 -160.684 0
      vertex 76.5463 -157.532 0
      vertex 72.2999 -162.248 0
    endloop
  endfacet
  facet normal -0 0 -1
    outer loop
      vertex 76.5463 -157.532 0
      vertex 71.0529 -160.684 0
      vertex 75.2993 -155.968 0
    endloop
  endfacet
  facet normal 0 0 -1
    outer loop
      vertex 67.1657 -165.978 0
      vertex 71.0529 -160.684 0
      vertex 72.2999 -162.248 0
    endloop
  endfacet
  facet normal 0 0 -1
    outer loop
      vertex 67.1657 -165.978 0
      vertex 65.9187 -164.414 0
      vertex 71.0529 -160.684 0
    endloop
  endfacet
  facet normal 0 0 -1
    outer loop
      vertex 61.3682 -168.559 0
      vertex 65.9187 -164.414 0
      vertex 67.1657 -165.978 0
    endloop
  endfacet
  facet normal 0 0 -1
    outer loop
      vertex 61.3682 -168.559 0
      vertex 60.1212 -166.995 0
      vertex 65.9187 -164.414 0
    endloop
  endfacet
  facet normal 0 0 -1
    outer loop
      vertex 59.6762 -168.945 0
      vertex 60.1212 -166.995 0
      vertex 61.3682 -168.559 0
    endloop
  endfacet
  facet normal 0 0 -1
    outer loop
      vertex 59.6762 -168.945 0
      vertex 53.9137 -168.315 0
      vertex 60.1212 -166.995 0
    endloop
  endfacet
  facet normal 0 0 -1
    outer loop
      vertex 53.4686 -170.265 0
      vertex 53.9137 -168.315 0
      vertex 59.6762 -168.945 0
    endloop
  endfacet
  facet normal 0 0 -1
    outer loop
      vertex 53.4686 -170.265 0
      vertex 47.5675 -168.315 0
      vertex 53.9137 -168.315 0
    endloop
  endfacet
  facet normal 0 0 -1
    outer loop
      vertex 47.1225 -170.265 0
      vertex 47.5675 -168.315 0
      vertex 53.4686 -170.265 0
    endloop
  endfacet
  facet normal 0 0 -1
    outer loop
      vertex 47.1225 -170.265 0
      vertex 41.36 -166.995 0
      vertex 47.5675 -168.315 0
    endloop
  endfacet
  facet normal 0 0 -1
    outer loop
      vertex 40.915 -168.945 0
      vertex 41.36 -166.995 0
      vertex 47.1225 -170.265 0
    endloop
  endfacet
  facet normal 0 0 -1
    outer loop
      vertex 35.1174 -166.364 0
      vertex 41.36 -166.995 0
      vertex 40.915 -168.945 0
    endloop
  endfacet
  facet normal 0 0 -1
    outer loop
      vertex 41.36 -166.995 0
      vertex 35.1174 -166.364 0
      vertex 35.5625 -164.414 0
    endloop
  endfacet
  facet normal 0 0 -1
    outer loop
      vertex 29.9833 -162.634 0
      vertex 35.5625 -164.414 0
      vertex 35.1174 -166.364 0
    endloop
  endfacet
  facet normal 0 0 -1
    outer loop
      vertex 35.5625 -164.414 0
      vertex 29.9833 -162.634 0
      vertex 30.4283 -160.684 0
    endloop
  endfacet
  facet normal 0 0 -1
    outer loop
      vertex 28.6264 -161.552 0
      vertex 30.4283 -160.684 0
      vertex 29.9833 -162.634 0
    endloop
  endfacet
  facet normal 0 0 -1
    outer loop
      vertex 28.6264 -161.552 0
      vertex 26.1819 -155.968 0
      vertex 30.4283 -160.684 0
    endloop
  endfacet
  facet normal 0 0 -1
    outer loop
      vertex 24.38 -156.836 0
      vertex 26.1819 -155.968 0
      vertex 28.6264 -161.552 0
    endloop
  endfacet
  facet normal 0 0 -1
    outer loop
      vertex 24.38 -156.836 0
      vertex 23.0088 -150.472 0
      vertex 26.1819 -155.968 0
    endloop
  endfacet
  facet normal 0 0 -1
    outer loop
      vertex 21.2069 -151.34 0
      vertex 23.0088 -150.472 0
      vertex 24.38 -156.836 0
    endloop
  endfacet
  facet normal 0 0 -1
    outer loop
      vertex 18.7256 -143.703 0
      vertex 23.0088 -150.472 0
      vertex 21.2069 -151.34 0
    endloop
  endfacet
  facet normal 0 0 -1
    outer loop
      vertex 23.0088 -150.472 0
      vertex 18.7256 -143.703 0
      vertex 20.5276 -142.836 0
    endloop
  endfacet
  facet normal -0 0 -1
    outer loop
      vertex 20.5276 -142.836 0
      vertex 18.7256 -143.703 0
      vertex 19.4823 -141.025 0
    endloop
  endfacet
  facet normal 0 0 -1
    outer loop
      vertex 17.6803 -141.893 0
      vertex 19.4823 -141.025 0
      vertex 18.7256 -143.703 0
    endloop
  endfacet
  facet normal 0 0 -1
    outer loop
      vertex 17.6803 -141.893 0
      vertex -8.03552 -108.719 0
      vertex 19.4823 -141.025 0
    endloop
  endfacet
  facet normal 0 0 -1
    outer loop
      vertex -9.83745 -109.587 0
      vertex -8.03552 -108.719 0
      vertex 17.6803 -141.893 0
    endloop
  endfacet
  facet normal 0 0 -1
    outer loop
      vertex -9.83745 -109.587 0
      vertex -9.11938 -107.097 0
      vertex -8.03552 -108.719 0
    endloop
  endfacet
  facet normal 0 0 -1
    outer loop
      vertex -10.9213 -107.965 0
      vertex -9.11938 -107.097 0
      vertex -9.83745 -109.587 0
    endloop
  endfacet
  facet normal 0 0 -1
    outer loop
      vertex -11.3019 -106.052 0
      vertex -9.11938 -107.097 0
      vertex -10.9213 -107.965 0
    endloop
  endfacet
  facet normal 0 0 -1
    outer loop
      vertex -9.11938 -107.097 0
      vertex -11.3019 -106.052 0
      vertex -9.5 -105.184 0
    endloop
  endfacet
  facet normal 0 0 -1
    outer loop
      vertex -11.3019 -71.5 0
      vertex -9.5 -105.184 0
      vertex -11.3019 -106.052 0
    endloop
  endfacet
  facet normal 0 0 -1
    outer loop
      vertex -9.5 -105.184 0
      vertex -11.3019 -71.5 0
      vertex -9.5 -71.5 0
    endloop
  endfacet
  facet normal 0 0 -1
    outer loop
      vertex 81.0968 -138.125 0
      vertex 83.0968 -138.125 0
      vertex 82.4335 -144.436 0
    endloop
  endfacet
  facet normal 0 0 -1
    outer loop
      vertex 83.0968 -138.125 0
      vertex 81.0968 -138.125 0
      vertex 83.0968 -122.125 0
    endloop
  endfacet
  facet normal -0 0 -1
    outer loop
      vertex 83.0968 -122.125 0
      vertex 81.0968 -138.125 0
      vertex 81.0968 -122.125 0
    endloop
  endfacet
  facet normal -0 0 1
    outer loop
      vertex -11.3019 -71.5 79
      vertex -9.5 -105.184 79
      vertex -9.5 -71.5 79
    endloop
  endfacet
  facet normal 0 -0 1
    outer loop
      vertex -10.9213 -107.965 79
      vertex -9.5 -105.184 79
      vertex -11.3019 -106.052 79
    endloop
  endfacet
  facet normal 0 0 1
    outer loop
      vertex -9.5 -105.184 79
      vertex -11.3019 -71.5 79
      vertex -11.3019 -106.052 79
    endloop
  endfacet
  facet normal 0 0 1
    outer loop
      vertex -9.5 -105.184 79
      vertex -10.9213 -107.965 79
      vertex -9.83745 -109.587 79
    endloop
  endfacet
  facet normal 0 0 1
    outer loop
      vertex 81.0968 -138.125 79
      vertex 83.0968 -138.125 79
      vertex 83.0968 -122.125 79
    endloop
  endfacet
  facet normal 0 0 1
    outer loop
      vertex 81.0968 -138.125 79
      vertex 83.0968 -122.125 79
      vertex 81.0968 -122.125 79
    endloop
  endfacet
  facet normal 0 0 1
    outer loop
      vertex 83.0968 -138.125 79
      vertex 81.0968 -138.125 79
      vertex 82.4335 -144.436 79
    endloop
  endfacet
  facet normal 0 0 1
    outer loop
      vertex 80.4335 -144.436 79
      vertex 82.4335 -144.436 79
      vertex 81.0968 -138.125 79
    endloop
  endfacet
  facet normal 0 0 1
    outer loop
      vertex 82.4335 -144.436 79
      vertex 80.4335 -144.436 79
      vertex 80.4724 -150.472 79
    endloop
  endfacet
  facet normal 0 0 1
    outer loop
      vertex 78.4724 -150.472 79
      vertex 80.4724 -150.472 79
      vertex 80.4335 -144.436 79
    endloop
  endfacet
  facet normal 0 0 1
    outer loop
      vertex 80.4724 -150.472 79
      vertex 78.4724 -150.472 79
      vertex 79.7194 -152.036 79
    endloop
  endfacet
  facet normal 0 0 1
    outer loop
      vertex 75.2993 -155.968 79
      vertex 79.7194 -152.036 79
      vertex 78.4724 -150.472 79
    endloop
  endfacet
  facet normal 0 0 1
    outer loop
      vertex 79.7194 -152.036 79
      vertex 75.2993 -155.968 79
      vertex 76.5463 -157.532 79
    endloop
  endfacet
  facet normal 0 0 1
    outer loop
      vertex 71.0529 -160.684 79
      vertex 76.5463 -157.532 79
      vertex 75.2993 -155.968 79
    endloop
  endfacet
  facet normal 0 0 1
    outer loop
      vertex 76.5463 -157.532 79
      vertex 71.0529 -160.684 79
      vertex 72.2999 -162.248 79
    endloop
  endfacet
  facet normal 0 0 1
    outer loop
      vertex 71.0529 -160.684 79
      vertex 67.1657 -165.978 79
      vertex 72.2999 -162.248 79
    endloop
  endfacet
  facet normal -0 0 1
    outer loop
      vertex 65.9187 -164.414 79
      vertex 67.1657 -165.978 79
      vertex 71.0529 -160.684 79
    endloop
  endfacet
  facet normal 0 0 1
    outer loop
      vertex 65.9187 -164.414 79
      vertex 61.3682 -168.559 79
      vertex 67.1657 -165.978 79
    endloop
  endfacet
  facet normal -0 0 1
    outer loop
      vertex 60.1212 -166.995 79
      vertex 61.3682 -168.559 79
      vertex 65.9187 -164.414 79
    endloop
  endfacet
  facet normal 0 0 1
    outer loop
      vertex 60.1212 -166.995 79
      vertex 59.6762 -168.945 79
      vertex 61.3682 -168.559 79
    endloop
  endfacet
  facet normal -0 0 1
    outer loop
      vertex 53.9137 -168.315 79
      vertex 59.6762 -168.945 79
      vertex 60.1212 -166.995 79
    endloop
  endfacet
  facet normal 0 0 1
    outer loop
      vertex 53.9137 -168.315 79
      vertex 53.4686 -170.265 79
      vertex 59.6762 -168.945 79
    endloop
  endfacet
  facet normal -0 0 1
    outer loop
      vertex 47.5675 -168.315 79
      vertex 53.4686 -170.265 79
      vertex 53.9137 -168.315 79
    endloop
  endfacet
  facet normal 0 0 1
    outer loop
      vertex 47.5675 -168.315 79
      vertex 47.1225 -170.265 79
      vertex 53.4686 -170.265 79
    endloop
  endfacet
  facet normal 0 0 1
    outer loop
      vertex 41.36 -166.995 79
      vertex 47.1225 -170.265 79
      vertex 47.5675 -168.315 79
    endloop
  endfacet
  facet normal 0 0 1
    outer loop
      vertex 41.36 -166.995 79
      vertex 40.915 -168.945 79
      vertex 47.1225 -170.265 79
    endloop
  endfacet
  facet normal -0 0 1
    outer loop
      vertex 35.1174 -166.364 79
      vertex 41.36 -166.995 79
      vertex 35.5625 -164.414 79
    endloop
  endfacet
  facet normal 0 0 1
    outer loop
      vertex 41.36 -166.995 79
      vertex 35.1174 -166.364 79
      vertex 40.915 -168.945 79
    endloop
  endfacet
  facet normal -0 0 1
    outer loop
      vertex 29.9833 -162.634 79
      vertex 35.5625 -164.414 79
      vertex 30.4283 -160.684 79
    endloop
  endfacet
  facet normal 0 0 1
    outer loop
      vertex 35.5625 -164.414 79
      vertex 29.9833 -162.634 79
      vertex 35.1174 -166.364 79
    endloop
  endfacet
  facet normal 0 0 1
    outer loop
      vertex 30.4283 -160.684 79
      vertex 28.6264 -161.552 79
      vertex 29.9833 -162.634 79
    endloop
  endfacet
  facet normal 0 0 1
    outer loop
      vertex 26.1819 -155.968 79
      vertex 28.6264 -161.552 79
      vertex 30.4283 -160.684 79
    endloop
  endfacet
  facet normal 0 0 1
    outer loop
      vertex 26.1819 -155.968 79
      vertex 24.38 -156.836 79
      vertex 28.6264 -161.552 79
    endloop
  endfacet
  facet normal 0 0 1
    outer loop
      vertex 23.0088 -150.472 79
      vertex 24.38 -156.836 79
      vertex 26.1819 -155.968 79
    endloop
  endfacet
  facet normal 0 0 1
    outer loop
      vertex 23.0088 -150.472 79
      vertex 21.2069 -151.34 79
      vertex 24.38 -156.836 79
    endloop
  endfacet
  facet normal -0 0 1
    outer loop
      vertex 18.7256 -143.703 79
      vertex 23.0088 -150.472 79
      vertex 20.5276 -142.836 79
    endloop
  endfacet
  facet normal 0 0 1
    outer loop
      vertex 18.7256 -143.703 79
      vertex 20.5276 -142.836 79
      vertex 19.4823 -141.025 79
    endloop
  endfacet
  facet normal 0 0 1
    outer loop
      vertex 23.0088 -150.472 79
      vertex 18.7256 -143.703 79
      vertex 21.2069 -151.34 79
    endloop
  endfacet
  facet normal 0 0 1
    outer loop
      vertex 19.4823 -141.025 79
      vertex 17.6803 -141.893 79
      vertex 18.7256 -143.703 79
    endloop
  endfacet
  facet normal 0 0 1
    outer loop
      vertex -8.03552 -108.719 79
      vertex 17.6803 -141.893 79
      vertex 19.4823 -141.025 79
    endloop
  endfacet
  facet normal 0 0 1
    outer loop
      vertex -8.03552 -108.719 79
      vertex -9.83745 -109.587 79
      vertex 17.6803 -141.893 79
    endloop
  endfacet
  facet normal 0 0 1
    outer loop
      vertex -9.11938 -107.097 79
      vertex -9.83745 -109.587 79
      vertex -8.03552 -108.719 79
    endloop
  endfacet
  facet normal 0 0 1
    outer loop
      vertex -9.83745 -109.587 79
      vertex -9.11938 -107.097 79
      vertex -9.5 -105.184 79
    endloop
  endfacet
  facet normal 0.222517 -0.974929 0
    outer loop
      vertex 59.6762 -168.945 0
      vertex 61.3682 -168.559 79
      vertex 59.6762 -168.945 79
    endloop
  endfacet
  facet normal 0.222517 -0.974929 0
    outer loop
      vertex 61.3682 -168.559 79
      vertex 59.6762 -168.945 0
      vertex 61.3682 -168.559 0
    endloop
  endfacet
  facet normal 0.406735 -0.913546 0
    outer loop
      vertex 61.3682 -168.559 0
      vertex 67.1657 -165.978 79
      vertex 61.3682 -168.559 79
    endloop
  endfacet
  facet normal 0.406735 -0.913546 0
    outer loop
      vertex 67.1657 -165.978 79
      vertex 61.3682 -168.559 0
      vertex 67.1657 -165.978 0
    endloop
  endfacet
  facet normal 0.587786 -0.809016 0
    outer loop
      vertex 67.1657 -165.978 0
      vertex 72.2999 -162.248 79
      vertex 67.1657 -165.978 79
    endloop
  endfacet
  facet normal 0.587786 -0.809016 0
    outer loop
      vertex 72.2999 -162.248 79
      vertex 67.1657 -165.978 0
      vertex 72.2999 -162.248 0
    endloop
  endfacet
  facet normal 0.743146 -0.669129 0
    outer loop
      vertex 72.2999 -162.248 79
      vertex 76.5463 -157.532 0
      vertex 76.5463 -157.532 79
    endloop
  endfacet
  facet normal 0.743146 -0.669129 0
    outer loop
      vertex 76.5463 -157.532 0
      vertex 72.2999 -162.248 79
      vertex 72.2999 -162.248 0
    endloop
  endfacet
  facet normal 0.866025 -0.5 0
    outer loop
      vertex 76.5463 -157.532 79
      vertex 79.7194 -152.036 0
      vertex 79.7194 -152.036 79
    endloop
  endfacet
  facet normal 0.866025 -0.5 0
    outer loop
      vertex 79.7194 -152.036 0
      vertex 76.5463 -157.532 79
      vertex 76.5463 -157.532 0
    endloop
  endfacet
  facet normal 0.900968 -0.433885 0
    outer loop
      vertex 79.7194 -152.036 79
      vertex 80.4724 -150.472 0
      vertex 80.4724 -150.472 79
    endloop
  endfacet
  facet normal 0.900968 -0.433885 0
    outer loop
      vertex 80.4724 -150.472 0
      vertex 79.7194 -152.036 79
      vertex 79.7194 -152.036 0
    endloop
  endfacet
  facet normal 0.951057 -0.309016 0
    outer loop
      vertex 80.4724 -150.472 79
      vertex 82.4335 -144.436 0
      vertex 82.4335 -144.436 79
    endloop
  endfacet
  facet normal 0.951057 -0.309016 0
    outer loop
      vertex 82.4335 -144.436 0
      vertex 80.4724 -150.472 79
      vertex 80.4724 -150.472 0
    endloop
  endfacet
  facet normal 0.994522 -0.104531 0
    outer loop
      vertex 82.4335 -144.436 79
      vertex 83.0968 -138.125 0
      vertex 83.0968 -138.125 79
    endloop
  endfacet
  facet normal 0.994522 -0.104531 0
    outer loop
      vertex 83.0968 -138.125 0
      vertex 82.4335 -144.436 79
      vertex 82.4335 -144.436 0
    endloop
  endfacet
  facet normal 1 -0 0
    outer loop
      vertex 83.0968 -132.125 70.4
      vertex 83.0968 -130.739 7.8
      vertex 83.0968 -130.739 71.2
    endloop
  endfacet
  facet normal 1 0 0
    outer loop
      vertex 83.0968 -132.125 70.4
      vertex 83.0968 -132.125 8.6
      vertex 83.0968 -130.739 7.8
    endloop
  endfacet
  facet normal 1 0 0
    outer loop
      vertex 83.0968 -133.511 71.2
      vertex 83.0968 -132.125 8.6
      vertex 83.0968 -132.125 70.4
    endloop
  endfacet
  facet normal 1 0 0
    outer loop
      vertex 83.0968 -132.125 8.6
      vertex 83.0968 -133.511 71.2
      vertex 83.0968 -133.511 7.8
    endloop
  endfacet
  facet normal 1 0 0
    outer loop
      vertex 83.0968 -130.739 71.2
      vertex 83.0968 -122.125 79
      vertex 83.0968 -130.739 72.8
    endloop
  endfacet
  facet normal 1 0 0
    outer loop
      vertex 83.0968 -122.125 79
      vertex 83.0968 -132.125 73.6
      vertex 83.0968 -130.739 72.8
    endloop
  endfacet
  facet normal 1 0 0
    outer loop
      vertex 83.0968 -138.125 79
      vertex 83.0968 -133.511 71.2
      vertex 83.0968 -133.511 72.8
    endloop
  endfacet
  facet normal 1 0 0
    outer loop
      vertex 83.0968 -133.511 71.2
      vertex 83.0968 -138.125 79
      vertex 83.0968 -133.511 7.8
    endloop
  endfacet
  facet normal 1 0 0
    outer loop
      vertex 83.0968 -138.125 0
      vertex 83.0968 -133.511 7.8
      vertex 83.0968 -138.125 79
    endloop
  endfacet
  facet normal 1 0 0
    outer loop
      vertex 83.0968 -132.125 73.6
      vertex 83.0968 -138.125 79
      vertex 83.0968 -133.511 72.8
    endloop
  endfacet
  facet normal 1 -0 0
    outer loop
      vertex 83.0968 -138.125 79
      vertex 83.0968 -132.125 73.6
      vertex 83.0968 -122.125 79
    endloop
  endfacet
  facet normal 1 0 0
    outer loop
      vertex 83.0968 -122.125 79
      vertex 83.0968 -130.739 71.2
      vertex 83.0968 -122.125 0
    endloop
  endfacet
  facet normal 1 -0 0
    outer loop
      vertex 83.0968 -130.739 7.8
      vertex 83.0968 -122.125 0
      vertex 83.0968 -130.739 71.2
    endloop
  endfacet
  facet normal 1 -0 0
    outer loop
      vertex 83.0968 -130.739 6.2
      vertex 83.0968 -122.125 0
      vertex 83.0968 -130.739 7.8
    endloop
  endfacet
  facet normal 1 -0 0
    outer loop
      vertex 83.0968 -132.125 5.4
      vertex 83.0968 -122.125 0
      vertex 83.0968 -130.739 6.2
    endloop
  endfacet
  facet normal 1 0 0
    outer loop
      vertex 83.0968 -132.125 5.4
      vertex 83.0968 -138.125 0
      vertex 83.0968 -122.125 0
    endloop
  endfacet
  facet normal 1 0 0
    outer loop
      vertex 83.0968 -133.511 6.2
      vertex 83.0968 -138.125 0
      vertex 83.0968 -132.125 5.4
    endloop
  endfacet
  facet normal 1 0 0
    outer loop
      vertex 83.0968 -133.511 7.8
      vertex 83.0968 -138.125 0
      vertex 83.0968 -133.511 6.2
    endloop
  endfacet
  facet normal 0 1 -0
    outer loop
      vertex 83.0968 -122.125 0
      vertex 81.0968 -122.125 79
      vertex 83.0968 -122.125 79
    endloop
  endfacet
  facet normal 0 1 0
    outer loop
      vertex 81.0968 -122.125 79
      vertex 83.0968 -122.125 0
      vertex 81.0968 -122.125 0
    endloop
  endfacet
  facet normal -1 0 0
    outer loop
      vertex 81.0968 -132.125 8.6
      vertex 81.0968 -130.739 71.2
      vertex 81.0968 -130.739 7.8
    endloop
  endfacet
  facet normal -1 0 0
    outer loop
      vertex 81.0968 -132.125 8.6
      vertex 81.0968 -132.125 70.4
      vertex 81.0968 -130.739 71.2
    endloop
  endfacet
  facet normal -1 0 0
    outer loop
      vertex 81.0968 -133.511 7.8
      vertex 81.0968 -132.125 70.4
      vertex 81.0968 -132.125 8.6
    endloop
  endfacet
  facet normal -1 -0 0
    outer loop
      vertex 81.0968 -132.125 70.4
      vertex 81.0968 -133.511 7.8
      vertex 81.0968 -133.511 71.2
    endloop
  endfacet
  facet normal -1 0 0
    outer loop
      vertex 81.0968 -130.739 7.8
      vertex 81.0968 -122.125 0
      vertex 81.0968 -130.739 6.2
    endloop
  endfacet
  facet normal -1 0 0
    outer loop
      vertex 81.0968 -122.125 0
      vertex 81.0968 -132.125 5.4
      vertex 81.0968 -130.739 6.2
    endloop
  endfacet
  facet normal -1 0 0
    outer loop
      vertex 81.0968 -138.125 0
      vertex 81.0968 -133.511 7.8
      vertex 81.0968 -133.511 6.2
    endloop
  endfacet
  facet normal -1 -0 0
    outer loop
      vertex 81.0968 -133.511 7.8
      vertex 81.0968 -138.125 0
      vertex 81.0968 -133.511 71.2
    endloop
  endfacet
  facet normal -1 0 0
    outer loop
      vertex 81.0968 -138.125 79
      vertex 81.0968 -133.511 71.2
      vertex 81.0968 -138.125 0
    endloop
  endfacet
  facet normal -1 -0 0
    outer loop
      vertex 81.0968 -132.125 5.4
      vertex 81.0968 -138.125 0
      vertex 81.0968 -133.511 6.2
    endloop
  endfacet
  facet normal -1 0 0
    outer loop
      vertex 81.0968 -138.125 0
      vertex 81.0968 -132.125 5.4
      vertex 81.0968 -122.125 0
    endloop
  endfacet
  facet normal -1 0 0
    outer loop
      vertex 81.0968 -122.125 0
      vertex 81.0968 -130.739 7.8
      vertex 81.0968 -122.125 79
    endloop
  endfacet
  facet normal -1 0 0
    outer loop
      vertex 81.0968 -130.739 71.2
      vertex 81.0968 -122.125 79
      vertex 81.0968 -130.739 7.8
    endloop
  endfacet
  facet normal -1 0 0
    outer loop
      vertex 81.0968 -130.739 72.8
      vertex 81.0968 -122.125 79
      vertex 81.0968 -130.739 71.2
    endloop
  endfacet
  facet normal -1 0 0
    outer loop
      vertex 81.0968 -132.125 73.6
      vertex 81.0968 -122.125 79
      vertex 81.0968 -130.739 72.8
    endloop
  endfacet
  facet normal -1 0 0
    outer loop
      vertex 81.0968 -132.125 73.6
      vertex 81.0968 -138.125 79
      vertex 81.0968 -122.125 79
    endloop
  endfacet
  facet normal -1 0 0
    outer loop
      vertex 81.0968 -133.511 72.8
      vertex 81.0968 -138.125 79
      vertex 81.0968 -132.125 73.6
    endloop
  endfacet
  facet normal -1 0 0
    outer loop
      vertex 81.0968 -133.511 71.2
      vertex 81.0968 -138.125 79
      vertex 81.0968 -133.511 72.8
    endloop
  endfacet
  facet normal -0.994522 0.104531 0
    outer loop
      vertex 80.4335 -144.436 0
      vertex 81.0968 -138.125 79
      vertex 81.0968 -138.125 0
    endloop
  endfacet
  facet normal -0.994522 0.104531 0
    outer loop
      vertex 81.0968 -138.125 79
      vertex 80.4335 -144.436 0
      vertex 80.4335 -144.436 79
    endloop
  endfacet
  facet normal -0.951057 0.309016 0
    outer loop
      vertex 78.4724 -150.472 0
      vertex 80.4335 -144.436 79
      vertex 80.4335 -144.436 0
    endloop
  endfacet
  facet normal -0.951057 0.309016 0
    outer loop
      vertex 80.4335 -144.436 79
      vertex 78.4724 -150.472 0
      vertex 78.4724 -150.472 79
    endloop
  endfacet
  facet normal -0.866025 0.5 0
    outer loop
      vertex 75.2993 -155.968 0
      vertex 78.4724 -150.472 79
      vertex 78.4724 -150.472 0
    endloop
  endfacet
  facet normal -0.866025 0.5 0
    outer loop
      vertex 78.4724 -150.472 79
      vertex 75.2993 -155.968 0
      vertex 75.2993 -155.968 79
    endloop
  endfacet
  facet normal -0.743146 0.669129 0
    outer loop
      vertex 71.0529 -160.684 0
      vertex 75.2993 -155.968 79
      vertex 75.2993 -155.968 0
    endloop
  endfacet
  facet normal -0.743146 0.669129 0
    outer loop
      vertex 75.2993 -155.968 79
      vertex 71.0529 -160.684 0
      vertex 71.0529 -160.684 79
    endloop
  endfacet
  facet normal -0.587786 0.809016 0
    outer loop
      vertex 71.0529 -160.684 0
      vertex 65.9187 -164.414 79
      vertex 71.0529 -160.684 79
    endloop
  endfacet
  facet normal -0.587786 0.809016 0
    outer loop
      vertex 65.9187 -164.414 79
      vertex 71.0529 -160.684 0
      vertex 65.9187 -164.414 0
    endloop
  endfacet
  facet normal -0.406735 0.913546 0
    outer loop
      vertex 65.9187 -164.414 0
      vertex 60.1212 -166.995 79
      vertex 65.9187 -164.414 79
    endloop
  endfacet
  facet normal -0.406735 0.913546 0
    outer loop
      vertex 60.1212 -166.995 79
      vertex 65.9187 -164.414 0
      vertex 60.1212 -166.995 0
    endloop
  endfacet
  facet normal -0.20791 0.978148 0
    outer loop
      vertex 60.1212 -166.995 0
      vertex 53.9137 -168.315 79
      vertex 60.1212 -166.995 79
    endloop
  endfacet
  facet normal -0.20791 0.978148 0
    outer loop
      vertex 53.9137 -168.315 79
      vertex 60.1212 -166.995 0
      vertex 53.9137 -168.315 0
    endloop
  endfacet
  facet normal 0 1 0
    outer loop
      vertex 53.9137 -168.315 79
      vertex 50.7406 -168.315 73.6
      vertex 47.5675 -168.315 79
    endloop
  endfacet
  facet normal 0 1 0
    outer loop
      vertex 53.9137 -168.315 79
      vertex 52.1263 -168.315 72.8
      vertex 50.7406 -168.315 73.6
    endloop
  endfacet
  facet normal 0 1 0
    outer loop
      vertex 53.9137 -168.315 79
      vertex 52.1263 -168.315 71.2
      vertex 52.1263 -168.315 72.8
    endloop
  endfacet
  facet normal 0 1 0
    outer loop
      vertex 52.1263 -168.315 71.2
      vertex 50.7406 -168.315 8.6
      vertex 50.7406 -168.315 70.4
    endloop
  endfacet
  facet normal 0 1 0
    outer loop
      vertex 52.1263 -168.315 7.8
      vertex 52.1263 -168.315 71.2
      vertex 53.9137 -168.315 79
    endloop
  endfacet
  facet normal 0 1 0
    outer loop
      vertex 52.1263 -168.315 71.2
      vertex 52.1263 -168.315 7.8
      vertex 50.7406 -168.315 8.6
    endloop
  endfacet
  facet normal 0 1 -0
    outer loop
      vertex 53.9137 -168.315 0
      vertex 52.1263 -168.315 7.8
      vertex 53.9137 -168.315 79
    endloop
  endfacet
  facet normal 0 1 0
    outer loop
      vertex 52.1263 -168.315 6.2
      vertex 53.9137 -168.315 0
      vertex 50.7406 -168.315 5.4
    endloop
  endfacet
  facet normal 0 1 0
    outer loop
      vertex 52.1263 -168.315 7.8
      vertex 53.9137 -168.315 0
      vertex 52.1263 -168.315 6.2
    endloop
  endfacet
  facet normal 0 1 -0
    outer loop
      vertex 49.355 -168.315 72.8
      vertex 47.5675 -168.315 79
      vertex 50.7406 -168.315 73.6
    endloop
  endfacet
  facet normal 0 1 -0
    outer loop
      vertex 49.355 -168.315 71.2
      vertex 47.5675 -168.315 79
      vertex 49.355 -168.315 72.8
    endloop
  endfacet
  facet normal 0 1 -0
    outer loop
      vertex 50.7406 -168.315 8.6
      vertex 49.355 -168.315 71.2
      vertex 50.7406 -168.315 70.4
    endloop
  endfacet
  facet normal 0 1 0
    outer loop
      vertex 49.355 -168.315 7.8
      vertex 49.355 -168.315 71.2
      vertex 50.7406 -168.315 8.6
    endloop
  endfacet
  facet normal 0 1 0
    outer loop
      vertex 49.355 -168.315 71.2
      vertex 49.355 -168.315 7.8
      vertex 47.5675 -168.315 79
    endloop
  endfacet
  facet normal 0 1 0
    outer loop
      vertex 47.5675 -168.315 0
      vertex 49.355 -168.315 7.8
      vertex 49.355 -168.315 6.2
    endloop
  endfacet
  facet normal 0 1 0
    outer loop
      vertex 47.5675 -168.315 0
      vertex 50.7406 -168.315 5.4
      vertex 53.9137 -168.315 0
    endloop
  endfacet
  facet normal 0 1 0
    outer loop
      vertex 49.355 -168.315 7.8
      vertex 47.5675 -168.315 0
      vertex 47.5675 -168.315 79
    endloop
  endfacet
  facet normal 0 1 0
    outer loop
      vertex 50.7406 -168.315 5.4
      vertex 47.5675 -168.315 0
      vertex 49.355 -168.315 6.2
    endloop
  endfacet
  facet normal 0.20791 0.978148 -0
    outer loop
      vertex 47.5675 -168.315 0
      vertex 41.36 -166.995 79
      vertex 47.5675 -168.315 79
    endloop
  endfacet
  facet normal 0.20791 0.978148 0
    outer loop
      vertex 41.36 -166.995 79
      vertex 47.5675 -168.315 0
      vertex 41.36 -166.995 0
    endloop
  endfacet
  facet normal 0.406736 0.913546 -0
    outer loop
      vertex 41.36 -166.995 0
      vertex 35.5625 -164.414 79
      vertex 41.36 -166.995 79
    endloop
  endfacet
  facet normal 0.406736 0.913546 0
    outer loop
      vertex 35.5625 -164.414 79
      vertex 41.36 -166.995 0
      vertex 35.5625 -164.414 0
    endloop
  endfacet
  facet normal 0.587785 0.809017 -0
    outer loop
      vertex 35.5625 -164.414 0
      vertex 30.4283 -160.684 79
      vertex 35.5625 -164.414 79
    endloop
  endfacet
  facet normal 0.587785 0.809017 0
    outer loop
      vertex 30.4283 -160.684 79
      vertex 35.5625 -164.414 0
      vertex 30.4283 -160.684 0
    endloop
  endfacet
  facet normal 0.743146 0.669129 0
    outer loop
      vertex 30.4283 -160.684 79
      vertex 26.1819 -155.968 0
      vertex 26.1819 -155.968 79
    endloop
  endfacet
  facet normal 0.743146 0.669129 0
    outer loop
      vertex 26.1819 -155.968 0
      vertex 30.4283 -160.684 79
      vertex 30.4283 -160.684 0
    endloop
  endfacet
  facet normal 0.866025 0.5 0
    outer loop
      vertex 26.1819 -155.968 79
      vertex 23.0088 -150.472 0
      vertex 23.0088 -150.472 79
    endloop
  endfacet
  facet normal 0.866025 0.5 0
    outer loop
      vertex 23.0088 -150.472 0
      vertex 26.1819 -155.968 79
      vertex 26.1819 -155.968 0
    endloop
  endfacet
  facet normal 0.951057 0.309017 0
    outer loop
      vertex 23.0088 -150.472 79
      vertex 20.5276 -142.836 0
      vertex 20.5276 -142.836 79
    endloop
  endfacet
  facet normal 0.951057 0.309017 0
    outer loop
      vertex 20.5276 -142.836 0
      vertex 23.0088 -150.472 79
      vertex 23.0088 -150.472 0
    endloop
  endfacet
  facet normal 0.866025 0.500001 0
    outer loop
      vertex 20.5276 -142.836 79
      vertex 19.4823 -141.025 0
      vertex 19.4823 -141.025 79
    endloop
  endfacet
  facet normal 0.866025 0.500001 0
    outer loop
      vertex 19.4823 -141.025 0
      vertex 20.5276 -142.836 79
      vertex 20.5276 -142.836 0
    endloop
  endfacet
  facet normal 0.761267 0.648438 0
    outer loop
      vertex 4.96955 -123.987 70.8155
      vertex 4.53209 -123.474 7.8
      vertex 4.53209 -123.474 71.2
    endloop
  endfacet
  facet normal 0.761267 0.648438 0
    outer loop
      vertex 4.96955 -123.987 70.8155
      vertex 4.96955 -123.987 8.18454
      vertex 4.53209 -123.474 7.8
    endloop
  endfacet
  facet normal 0.761265 0.648441 0
    outer loop
      vertex 5.44218 -124.542 70.4
      vertex 4.96955 -123.987 8.18454
      vertex 4.96955 -123.987 70.8155
    endloop
  endfacet
  facet normal 0.761265 0.648441 0
    outer loop
      vertex 5.44218 -124.542 70.4
      vertex 5.44218 -124.542 8.6
      vertex 4.96955 -123.987 8.18454
    endloop
  endfacet
  facet normal 0.761265 0.648441 0
    outer loop
      vertex 5.91481 -125.097 70.8155
      vertex 5.44218 -124.542 8.6
      vertex 5.44218 -124.542 70.4
    endloop
  endfacet
  facet normal 0.761265 0.648441 0
    outer loop
      vertex 5.91481 -125.097 70.8155
      vertex 5.91481 -125.097 8.18454
      vertex 5.44218 -124.542 8.6
    endloop
  endfacet
  facet normal 0.761268 0.648437 0
    outer loop
      vertex 6.35227 -125.61 71.2
      vertex 5.91481 -125.097 8.18454
      vertex 5.91481 -125.097 70.8155
    endloop
  endfacet
  facet normal 0.761268 0.648437 0
    outer loop
      vertex 5.91481 -125.097 8.18454
      vertex 6.35227 -125.61 71.2
      vertex 6.35227 -125.61 7.8
    endloop
  endfacet
  facet normal 0.761266 0.64844 -0
    outer loop
      vertex 4.53209 -123.474 71.2
      vertex -8.03552 -108.719 79
      vertex 4.53209 -123.474 72.8
    endloop
  endfacet
  facet normal 0.761266 0.648439 3.09922e-06
    outer loop
      vertex -8.03552 -108.719 79
      vertex 4.96955 -123.987 73.1845
      vertex 4.53209 -123.474 72.8
    endloop
  endfacet
  facet normal 0.761265 0.64844 -1.32095e-06
    outer loop
      vertex -8.03552 -108.719 79
      vertex 5.44218 -124.542 73.6
      vertex 4.96955 -123.987 73.1845
    endloop
  endfacet
  facet normal 0.761265 0.648441 2.06247e-06
    outer loop
      vertex 19.4823 -141.025 79
      vertex 5.91481 -125.097 73.1845
      vertex 5.44218 -124.542 73.6
    endloop
  endfacet
  facet normal 0.761266 0.64844 0
    outer loop
      vertex 19.4823 -141.025 79
      vertex 6.35227 -125.61 71.2
      vertex 6.35227 -125.61 72.8
    endloop
  endfacet
  facet normal 0.761266 0.64844 0
    outer loop
      vertex 6.35227 -125.61 71.2
      vertex 19.4823 -141.025 79
      vertex 6.35227 -125.61 7.8
    endloop
  endfacet
  facet normal 0.761266 0.64844 -0
    outer loop
      vertex 19.4823 -141.025 0
      vertex 6.35227 -125.61 7.8
      vertex 19.4823 -141.025 79
    endloop
  endfacet
  facet normal 0.761266 0.648439 -4.27682e-06
    outer loop
      vertex 5.91481 -125.097 73.1845
      vertex 19.4823 -141.025 79
      vertex 6.35227 -125.61 72.8
    endloop
  endfacet
  facet normal 0.761266 0.64844 1.88187e-07
    outer loop
      vertex 19.4823 -141.025 79
      vertex 5.44218 -124.542 73.6
      vertex -8.03552 -108.719 79
    endloop
  endfacet
  facet normal 0.761266 0.64844 0
    outer loop
      vertex -8.03552 -108.719 79
      vertex 4.53209 -123.474 71.2
      vertex -8.03552 -108.719 0
    endloop
  endfacet
  facet normal 0.761266 0.64844 -0
    outer loop
      vertex 4.53209 -123.474 7.8
      vertex -8.03552 -108.719 0
      vertex 4.53209 -123.474 71.2
    endloop
  endfacet
  facet normal 0.761266 0.64844 -0
    outer loop
      vertex 4.53209 -123.474 6.2
      vertex -8.03552 -108.719 0
      vertex 4.53209 -123.474 7.8
    endloop
  endfacet
  facet normal 0.761266 0.648439 -3.09919e-06
    outer loop
      vertex 4.96955 -123.987 5.81546
      vertex -8.03552 -108.719 0
      vertex 4.53209 -123.474 6.2
    endloop
  endfacet
  facet normal 0.761265 0.64844 1.32096e-06
    outer loop
      vertex 5.44218 -124.542 5.4
      vertex -8.03552 -108.719 0
      vertex 4.96955 -123.987 5.81546
    endloop
  endfacet
  facet normal 0.761266 0.648439 4.27677e-06
    outer loop
      vertex 19.4823 -141.025 0
      vertex 5.91481 -125.097 5.81546
      vertex 6.35227 -125.61 6.2
    endloop
  endfacet
  facet normal 0.761266 0.64844 -1.88187e-07
    outer loop
      vertex 5.44218 -124.542 5.4
      vertex 19.4823 -141.025 0
      vertex -8.03552 -108.719 0
    endloop
  endfacet
  facet normal 0.761265 0.648441 -2.06248e-06
    outer loop
      vertex 5.91481 -125.097 5.81546
      vertex 19.4823 -141.025 0
      vertex 5.44218 -124.542 5.4
    endloop
  endfacet
  facet normal 0.761266 0.64844 0
    outer loop
      vertex 6.35227 -125.61 7.8
      vertex 19.4823 -141.025 0
      vertex 6.35227 -125.61 6.2
    endloop
  endfacet
  facet normal 0.83147 0.55557 0
    outer loop
      vertex -8.03552 -108.719 79
      vertex -9.11938 -107.097 0
      vertex -9.11938 -107.097 79
    endloop
  endfacet
  facet normal 0.83147 0.55557 0
    outer loop
      vertex -9.11938 -107.097 0
      vertex -8.03552 -108.719 79
      vertex -8.03552 -108.719 0
    endloop
  endfacet
  facet normal 0.980784 0.195098 0
    outer loop
      vertex -9.11938 -107.097 79
      vertex -9.5 -105.184 0
      vertex -9.5 -105.184 79
    endloop
  endfacet
  facet normal 0.980784 0.195098 0
    outer loop
      vertex -9.5 -105.184 0
      vertex -9.11938 -107.097 79
      vertex -9.11938 -107.097 0
    endloop
  endfacet
  facet normal 1 -0 0
    outer loop
      vertex -9.5 -81.5 70.4
      vertex -9.5 -80.1144 7.8
      vertex -9.5 -80.1144 71.2
    endloop
  endfacet
  facet normal 1 0 0
    outer loop
      vertex -9.5 -81.5 70.4
      vertex -9.5 -81.5 8.6
      vertex -9.5 -80.1144 7.8
    endloop
  endfacet
  facet normal 1 0 0
    outer loop
      vertex -9.5 -82.8856 71.2
      vertex -9.5 -81.5 8.6
      vertex -9.5 -81.5 70.4
    endloop
  endfacet
  facet normal 1 0 0
    outer loop
      vertex -9.5 -81.5 8.6
      vertex -9.5 -82.8856 71.2
      vertex -9.5 -82.8856 7.8
    endloop
  endfacet
  facet normal 1 0 0
    outer loop
      vertex -9.5 -80.1144 71.2
      vertex -9.5 -71.5 79
      vertex -9.5 -80.1144 72.8
    endloop
  endfacet
  facet normal 1 0 0
    outer loop
      vertex -9.5 -71.5 79
      vertex -9.5 -81.5 73.6
      vertex -9.5 -80.1144 72.8
    endloop
  endfacet
  facet normal 1 0 0
    outer loop
      vertex -9.5 -105.184 79
      vertex -9.5 -82.8856 71.2
      vertex -9.5 -82.8856 72.8
    endloop
  endfacet
  facet normal 1 0 0
    outer loop
      vertex -9.5 -82.8856 71.2
      vertex -9.5 -105.184 79
      vertex -9.5 -82.8856 7.8
    endloop
  endfacet
  facet normal 1 0 0
    outer loop
      vertex -9.5 -105.184 0
      vertex -9.5 -82.8856 7.8
      vertex -9.5 -105.184 79
    endloop
  endfacet
  facet normal 1 0 0
    outer loop
      vertex -9.5 -81.5 73.6
      vertex -9.5 -105.184 79
      vertex -9.5 -82.8856 72.8
    endloop
  endfacet
  facet normal 1 -0 0
    outer loop
      vertex -9.5 -105.184 79
      vertex -9.5 -81.5 73.6
      vertex -9.5 -71.5 79
    endloop
  endfacet
  facet normal 1 0 0
    outer loop
      vertex -9.5 -71.5 79
      vertex -9.5 -80.1144 71.2
      vertex -9.5 -71.5 0
    endloop
  endfacet
  facet normal 1 -0 0
    outer loop
      vertex -9.5 -80.1144 7.8
      vertex -9.5 -71.5 0
      vertex -9.5 -80.1144 71.2
    endloop
  endfacet
  facet normal 1 -0 0
    outer loop
      vertex -9.5 -80.1144 6.2
      vertex -9.5 -71.5 0
      vertex -9.5 -80.1144 7.8
    endloop
  endfacet
  facet normal 1 -0 0
    outer loop
      vertex -9.5 -81.5 5.4
      vertex -9.5 -71.5 0
      vertex -9.5 -80.1144 6.2
    endloop
  endfacet
  facet normal 1 0 0
    outer loop
      vertex -9.5 -81.5 5.4
      vertex -9.5 -105.184 0
      vertex -9.5 -71.5 0
    endloop
  endfacet
  facet normal 1 0 0
    outer loop
      vertex -9.5 -82.8856 6.2
      vertex -9.5 -105.184 0
      vertex -9.5 -81.5 5.4
    endloop
  endfacet
  facet normal 1 0 0
    outer loop
      vertex -9.5 -82.8856 7.8
      vertex -9.5 -105.184 0
      vertex -9.5 -82.8856 6.2
    endloop
  endfacet
  facet normal 0 1 -0
    outer loop
      vertex -9.5 -71.5 0
      vertex -11.3019 -71.5 79
      vertex -9.5 -71.5 79
    endloop
  endfacet
  facet normal 0 1 0
    outer loop
      vertex -11.3019 -71.5 79
      vertex -9.5 -71.5 0
      vertex -11.3019 -71.5 0
    endloop
  endfacet
  facet normal -1 0 0
    outer loop
      vertex -11.3019 -81.5 8.6
      vertex -11.3019 -80.1144 71.2
      vertex -11.3019 -80.1144 7.8
    endloop
  endfacet
  facet normal -1 0 0
    outer loop
      vertex -11.3019 -81.5 8.6
      vertex -11.3019 -81.5 70.4
      vertex -11.3019 -80.1144 71.2
    endloop
  endfacet
  facet normal -1 0 0
    outer loop
      vertex -11.3019 -82.8856 7.8
      vertex -11.3019 -81.5 70.4
      vertex -11.3019 -81.5 8.6
    endloop
  endfacet
  facet normal -1 -0 0
    outer loop
      vertex -11.3019 -81.5 70.4
      vertex -11.3019 -82.8856 7.8
      vertex -11.3019 -82.8856 71.2
    endloop
  endfacet
  facet normal -1 0 0
    outer loop
      vertex -11.3019 -80.1144 7.8
      vertex -11.3019 -71.5 0
      vertex -11.3019 -80.1144 6.2
    endloop
  endfacet
  facet normal -1 0 0
    outer loop
      vertex -11.3019 -71.5 0
      vertex -11.3019 -81.5 5.4
      vertex -11.3019 -80.1144 6.2
    endloop
  endfacet
  facet normal -1 0 0
    outer loop
      vertex -11.3019 -106.052 0
      vertex -11.3019 -82.8856 7.8
      vertex -11.3019 -82.8856 6.2
    endloop
  endfacet
  facet normal -1 -0 0
    outer loop
      vertex -11.3019 -82.8856 7.8
      vertex -11.3019 -106.052 0
      vertex -11.3019 -82.8856 71.2
    endloop
  endfacet
  facet normal -1 0 0
    outer loop
      vertex -11.3019 -106.052 79
      vertex -11.3019 -82.8856 71.2
      vertex -11.3019 -106.052 0
    endloop
  endfacet
  facet normal -1 -0 0
    outer loop
      vertex -11.3019 -81.5 5.4
      vertex -11.3019 -106.052 0
      vertex -11.3019 -82.8856 6.2
    endloop
  endfacet
  facet normal -1 0 0
    outer loop
      vertex -11.3019 -106.052 0
      vertex -11.3019 -81.5 5.4
      vertex -11.3019 -71.5 0
    endloop
  endfacet
  facet normal -1 0 0
    outer loop
      vertex -11.3019 -71.5 0
      vertex -11.3019 -80.1144 7.8
      vertex -11.3019 -71.5 79
    endloop
  endfacet
  facet normal -1 0 0
    outer loop
      vertex -11.3019 -80.1144 71.2
      vertex -11.3019 -71.5 79
      vertex -11.3019 -80.1144 7.8
    endloop
  endfacet
  facet normal -1 0 0
    outer loop
      vertex -11.3019 -80.1144 72.8
      vertex -11.3019 -71.5 79
      vertex -11.3019 -80.1144 71.2
    endloop
  endfacet
  facet normal -1 0 0
    outer loop
      vertex -11.3019 -81.5 73.6
      vertex -11.3019 -71.5 79
      vertex -11.3019 -80.1144 72.8
    endloop
  endfacet
  facet normal -1 0 0
    outer loop
      vertex -11.3019 -81.5 73.6
      vertex -11.3019 -106.052 79
      vertex -11.3019 -71.5 79
    endloop
  endfacet
  facet normal -1 0 0
    outer loop
      vertex -11.3019 -82.8856 72.8
      vertex -11.3019 -106.052 79
      vertex -11.3019 -81.5 73.6
    endloop
  endfacet
  facet normal -1 0 0
    outer loop
      vertex -11.3019 -82.8856 71.2
      vertex -11.3019 -106.052 79
      vertex -11.3019 -82.8856 72.8
    endloop
  endfacet
  facet normal -0.980784 -0.195098 0
    outer loop
      vertex -10.9213 -107.965 0
      vertex -11.3019 -106.052 79
      vertex -11.3019 -106.052 0
    endloop
  endfacet
  facet normal -0.980784 -0.195098 0
    outer loop
      vertex -11.3019 -106.052 79
      vertex -10.9213 -107.965 0
      vertex -10.9213 -107.965 79
    endloop
  endfacet
  facet normal -0.83147 -0.55557 0
    outer loop
      vertex -9.83745 -109.587 0
      vertex -10.9213 -107.965 79
      vertex -10.9213 -107.965 0
    endloop
  endfacet
  facet normal -0.83147 -0.55557 0
    outer loop
      vertex -10.9213 -107.965 79
      vertex -9.83745 -109.587 0
      vertex -9.83745 -109.587 79
    endloop
  endfacet
  facet normal -0.761264 -0.648442 0
    outer loop
      vertex 4.00769 -125.841 8.45589
      vertex 3.26155 -124.965 71.2
      vertex 3.26155 -124.965 7.8
    endloop
  endfacet
  facet normal -0.761264 -0.648442 0
    outer loop
      vertex 4.00769 -125.841 8.45589
      vertex 4.00769 -125.841 70.5441
      vertex 3.26155 -124.965 71.2
    endloop
  endfacet
  facet normal -0.761265 -0.648441 0
    outer loop
      vertex 4.17164 -126.034 8.6
      vertex 4.00769 -125.841 70.5441
      vertex 4.00769 -125.841 8.45589
    endloop
  endfacet
  facet normal -0.761265 -0.648441 0
    outer loop
      vertex 4.17164 -126.034 8.6
      vertex 4.17164 -126.034 70.4
      vertex 4.00769 -125.841 70.5441
    endloop
  endfacet
  facet normal -0.761267 -0.648438 0
    outer loop
      vertex 4.95295 -126.951 7.9132
      vertex 4.17164 -126.034 70.4
      vertex 4.17164 -126.034 8.6
    endloop
  endfacet
  facet normal -0.761267 -0.648438 0
    outer loop
      vertex 4.95295 -126.951 7.9132
      vertex 4.95295 -126.951 71.0868
      vertex 4.17164 -126.034 70.4
    endloop
  endfacet
  facet normal -0.761259 -0.648448 0
    outer loop
      vertex 5.08173 -127.102 7.8
      vertex 4.95295 -126.951 71.0868
      vertex 4.95295 -126.951 7.9132
    endloop
  endfacet
  facet normal -0.761259 -0.648448 0
    outer loop
      vertex 4.95295 -126.951 71.0868
      vertex 5.08173 -127.102 7.8
      vertex 5.08173 -127.102 71.2
    endloop
  endfacet
  facet normal -0.761266 -0.64844 -0
    outer loop
      vertex 3.26155 -124.965 7.8
      vertex -9.83745 -109.587 0
      vertex 3.26155 -124.965 6.2
    endloop
  endfacet
  facet normal -0.761265 -0.648441 -3.54884e-06
    outer loop
      vertex -9.83745 -109.587 0
      vertex 4.00769 -125.841 5.54411
      vertex 3.26155 -124.965 6.2
    endloop
  endfacet
  facet normal -0.761265 -0.64844 -5.87743e-07
    outer loop
      vertex -9.83745 -109.587 0
      vertex 4.17164 -126.034 5.4
      vertex 4.00769 -125.841 5.54411
    endloop
  endfacet
  facet normal -0.761266 -0.64844 0
    outer loop
      vertex 17.6803 -141.893 0
      vertex 5.08173 -127.102 7.8
      vertex 5.08173 -127.102 6.2
    endloop
  endfacet
  facet normal -0.761266 -0.64844 0
    outer loop
      vertex 5.08173 -127.102 7.8
      vertex 17.6803 -141.893 0
      vertex 5.08173 -127.102 71.2
    endloop
  endfacet
  facet normal -0.761266 -0.64844 -0
    outer loop
      vertex 17.6803 -141.893 79
      vertex 5.08173 -127.102 71.2
      vertex 17.6803 -141.893 0
    endloop
  endfacet
  facet normal -0.761263 -0.648443 1.19585e-05
    outer loop
      vertex 4.95295 -126.951 6.0868
      vertex 17.6803 -141.893 0
      vertex 5.08173 -127.102 6.2
    endloop
  endfacet
  facet normal -0.761266 -0.64844 -2.95169e-06
    outer loop
      vertex 4.17164 -126.034 5.4
      vertex 17.6803 -141.893 0
      vertex 4.95295 -126.951 6.0868
    endloop
  endfacet
  facet normal -0.761266 -0.64844 3.52323e-07
    outer loop
      vertex 17.6803 -141.893 0
      vertex 4.17164 -126.034 5.4
      vertex -9.83745 -109.587 0
    endloop
  endfacet
  facet normal -0.761266 -0.64844 0
    outer loop
      vertex -9.83745 -109.587 0
      vertex 3.26155 -124.965 7.8
      vertex -9.83745 -109.587 79
    endloop
  endfacet
  facet normal -0.761266 -0.64844 -0
    outer loop
      vertex 3.26155 -124.965 71.2
      vertex -9.83745 -109.587 79
      vertex 3.26155 -124.965 7.8
    endloop
  endfacet
  facet normal -0.761266 -0.64844 -0
    outer loop
      vertex 3.26155 -124.965 72.8
      vertex -9.83745 -109.587 79
      vertex 3.26155 -124.965 71.2
    endloop
  endfacet
  facet normal -0.761265 -0.648441 3.54886e-06
    outer loop
      vertex 4.00769 -125.841 73.4559
      vertex -9.83745 -109.587 79
      vertex 3.26155 -124.965 72.8
    endloop
  endfacet
  facet normal -0.761265 -0.64844 5.87741e-07
    outer loop
      vertex 4.17164 -126.034 73.6
      vertex -9.83745 -109.587 79
      vertex 4.00769 -125.841 73.4559
    endloop
  endfacet
  facet normal -0.761263 -0.648443 -1.19589e-05
    outer loop
      vertex 17.6803 -141.893 79
      vertex 4.95295 -126.951 72.9132
      vertex 5.08173 -127.102 72.8
    endloop
  endfacet
  facet normal -0.761266 -0.64844 -3.52323e-07
    outer loop
      vertex 4.17164 -126.034 73.6
      vertex 17.6803 -141.893 79
      vertex -9.83745 -109.587 79
    endloop
  endfacet
  facet normal -0.761266 -0.64844 2.95168e-06
    outer loop
      vertex 4.95295 -126.951 72.9132
      vertex 17.6803 -141.893 79
      vertex 4.17164 -126.034 73.6
    endloop
  endfacet
  facet normal -0.761266 -0.64844 0
    outer loop
      vertex 5.08173 -127.102 71.2
      vertex 17.6803 -141.893 79
      vertex 5.08173 -127.102 72.8
    endloop
  endfacet
  facet normal -0.866025 -0.500001 0
    outer loop
      vertex 18.7256 -143.703 0
      vertex 17.6803 -141.893 79
      vertex 17.6803 -141.893 0
    endloop
  endfacet
  facet normal -0.866025 -0.500001 0
    outer loop
      vertex 17.6803 -141.893 79
      vertex 18.7256 -143.703 0
      vertex 18.7256 -143.703 79
    endloop
  endfacet
  facet normal -0.951057 -0.309017 0
    outer loop
      vertex 21.2069 -151.34 0
      vertex 18.7256 -143.703 79
      vertex 18.7256 -143.703 0
    endloop
  endfacet
  facet normal -0.951057 -0.309017 0
    outer loop
      vertex 18.7256 -143.703 79
      vertex 21.2069 -151.34 0
      vertex 21.2069 -151.34 79
    endloop
  endfacet
  facet normal -0.866025 -0.5 0
    outer loop
      vertex 24.38 -156.836 0
      vertex 21.2069 -151.34 79
      vertex 21.2069 -151.34 0
    endloop
  endfacet
  facet normal -0.866025 -0.5 0
    outer loop
      vertex 21.2069 -151.34 79
      vertex 24.38 -156.836 0
      vertex 24.38 -156.836 79
    endloop
  endfacet
  facet normal -0.743146 -0.669129 0
    outer loop
      vertex 28.6264 -161.552 0
      vertex 24.38 -156.836 79
      vertex 24.38 -156.836 0
    endloop
  endfacet
  facet normal -0.743146 -0.669129 0
    outer loop
      vertex 24.38 -156.836 79
      vertex 28.6264 -161.552 0
      vertex 28.6264 -161.552 79
    endloop
  endfacet
  facet normal -0.623488 -0.781833 0
    outer loop
      vertex 28.6264 -161.552 0
      vertex 29.9833 -162.634 79
      vertex 28.6264 -161.552 79
    endloop
  endfacet
  facet normal -0.623488 -0.781833 -0
    outer loop
      vertex 29.9833 -162.634 79
      vertex 28.6264 -161.552 0
      vertex 29.9833 -162.634 0
    endloop
  endfacet
  facet normal -0.587785 -0.809017 0
    outer loop
      vertex 29.9833 -162.634 0
      vertex 35.1174 -166.364 79
      vertex 29.9833 -162.634 79
    endloop
  endfacet
  facet normal -0.587785 -0.809017 -0
    outer loop
      vertex 35.1174 -166.364 79
      vertex 29.9833 -162.634 0
      vertex 35.1174 -166.364 0
    endloop
  endfacet
  facet normal -0.406736 -0.913546 0
    outer loop
      vertex 35.1174 -166.364 0
      vertex 40.915 -168.945 79
      vertex 35.1174 -166.364 79
    endloop
  endfacet
  facet normal -0.406736 -0.913546 -0
    outer loop
      vertex 40.915 -168.945 79
      vertex 35.1174 -166.364 0
      vertex 40.915 -168.945 0
    endloop
  endfacet
  facet normal -0.20791 -0.978148 0
    outer loop
      vertex 40.915 -168.945 0
      vertex 47.1225 -170.265 79
      vertex 40.915 -168.945 79
    endloop
  endfacet
  facet normal -0.20791 -0.978148 -0
    outer loop
      vertex 47.1225 -170.265 79
      vertex 40.915 -168.945 0
      vertex 47.1225 -170.265 0
    endloop
  endfacet
  facet normal 0 -1 0
    outer loop
      vertex 47.1225 -170.265 79
      vertex 50.7406 -170.265 73.6
      vertex 53.4686 -170.265 79
    endloop
  endfacet
  facet normal 0 -1 0
    outer loop
      vertex 47.1225 -170.265 79
      vertex 49.355 -170.265 72.8
      vertex 50.7406 -170.265 73.6
    endloop
  endfacet
  facet normal 0 -1 0
    outer loop
      vertex 47.1225 -170.265 79
      vertex 49.355 -170.265 71.2
      vertex 49.355 -170.265 72.8
    endloop
  endfacet
  facet normal 0 -1 0
    outer loop
      vertex 49.355 -170.265 71.2
      vertex 50.7406 -170.265 8.6
      vertex 50.7406 -170.265 70.4
    endloop
  endfacet
  facet normal 0 -1 0
    outer loop
      vertex 49.355 -170.265 7.8
      vertex 49.355 -170.265 71.2
      vertex 47.1225 -170.265 79
    endloop
  endfacet
  facet normal 0 -1 0
    outer loop
      vertex 49.355 -170.265 71.2
      vertex 49.355 -170.265 7.8
      vertex 50.7406 -170.265 8.6
    endloop
  endfacet
  facet normal 0 -1 0
    outer loop
      vertex 47.1225 -170.265 0
      vertex 49.355 -170.265 7.8
      vertex 47.1225 -170.265 79
    endloop
  endfacet
  facet normal 0 -1 -0
    outer loop
      vertex 49.355 -170.265 6.2
      vertex 47.1225 -170.265 0
      vertex 50.7406 -170.265 5.4
    endloop
  endfacet
  facet normal 0 -1 -0
    outer loop
      vertex 49.355 -170.265 7.8
      vertex 47.1225 -170.265 0
      vertex 49.355 -170.265 6.2
    endloop
  endfacet
  facet normal 0 -1 0
    outer loop
      vertex 52.1263 -170.265 72.8
      vertex 53.4686 -170.265 79
      vertex 50.7406 -170.265 73.6
    endloop
  endfacet
  facet normal 0 -1 0
    outer loop
      vertex 52.1263 -170.265 71.2
      vertex 53.4686 -170.265 79
      vertex 52.1263 -170.265 72.8
    endloop
  endfacet
  facet normal 0 -1 0
    outer loop
      vertex 50.7406 -170.265 8.6
      vertex 52.1263 -170.265 71.2
      vertex 50.7406 -170.265 70.4
    endloop
  endfacet
  facet normal 0 -1 0
    outer loop
      vertex 52.1263 -170.265 7.8
      vertex 52.1263 -170.265 71.2
      vertex 50.7406 -170.265 8.6
    endloop
  endfacet
  facet normal 0 -1 0
    outer loop
      vertex 52.1263 -170.265 71.2
      vertex 52.1263 -170.265 7.8
      vertex 53.4686 -170.265 79
    endloop
  endfacet
  facet normal 0 -1 0
    outer loop
      vertex 53.4686 -170.265 0
      vertex 52.1263 -170.265 7.8
      vertex 52.1263 -170.265 6.2
    endloop
  endfacet
  facet normal 0 -1 0
    outer loop
      vertex 53.4686 -170.265 0
      vertex 50.7406 -170.265 5.4
      vertex 47.1225 -170.265 0
    endloop
  endfacet
  facet normal 0 -1 0
    outer loop
      vertex 52.1263 -170.265 7.8
      vertex 53.4686 -170.265 0
      vertex 53.4686 -170.265 79
    endloop
  endfacet
  facet normal 0 -1 0
    outer loop
      vertex 50.7406 -170.265 5.4
      vertex 53.4686 -170.265 0
      vertex 52.1263 -170.265 6.2
    endloop
  endfacet
  facet normal 0.20791 -0.978148 0
    outer loop
      vertex 53.4686 -170.265 0
      vertex 59.6762 -168.945 79
      vertex 53.4686 -170.265 79
    endloop
  endfacet
  facet normal 0.20791 -0.978148 0
    outer loop
      vertex 59.6762 -168.945 79
      vertex 53.4686 -170.265 0
      vertex 59.6762 -168.945 0
    endloop
  endfacet
endsolid OpenSCAD_Model
